<?xml version="1.0" encoding="UTF-8"?> <!-- Generator: Adobe Illustrator 23.0.3, SVG Export Plug-In . SVG Version: 6.00 Build 0) --> <svg xmlns="http://www.w3.org/2000/svg" xmlns:xlink="http://www.w3.org/1999/xlink" id="Calque_1" x="0px" y="0px" viewBox="0 0 112 84.3" style="enable-background:new 0 0 112 84.3;" xml:space="preserve"> <style type="text/css"> .st0{enable-background:new ;} .st1{fill:#122E39;} .st2{fill:#08777C;} .st3{fill:none;stroke:#08777C;stroke-width:1.797;stroke-linecap:round;stroke-miterlimit:10;} .st4{fill:#FFFFFF;stroke:#08777C;stroke-width:1.797;stroke-miterlimit:10;} .st5{fill:none;stroke:#08777C;stroke-width:1.797;stroke-miterlimit:10;} .st6{fill:#FFFFFF;} </style> <g class="st0"> <path class="st1" d="M7.9,82.3C7.9,82.3,7.8,82.3,7.9,82.3c-0.1,0.1-0.2,0.2-0.3,0.2c-0.3,0.1-0.5,0.2-0.8,0.3 c-0.3,0.1-0.6,0.2-1,0.2c-0.2,0-0.4,0.1-0.6,0.1c-0.1,0-0.2,0-0.3-0.1c-0.1-0.1-0.2,0-0.3,0c0,0-0.1,0-0.1,0c-0.2,0-0.4,0-0.6,0 c-0.2,0-0.4,0-0.5,0c-0.1,0-0.2,0-0.3,0c0,0,0,0,0,0c-0.1,0-0.2,0-0.3,0c-0.2-0.1-0.4-0.2-0.6-0.2c-0.3-0.1-0.6-0.3-0.9-0.5 c-0.3-0.2-0.6-0.7-0.4-1c0,0,0-0.1,0-0.2c0-0.1,0-0.1,0-0.2c0-0.2,0-0.4,0-0.7c0-0.4,0-0.8,0-1.2c0-0.1,0-0.3,0-0.4 c0-0.1,0-0.2,0-0.3c0-0.2,0-0.5,0-0.7c0-0.3,0-0.7,0-1.1c0-0.2-0.1-0.5-0.1-0.7c0-0.3,0-0.6,0-1c0-0.3,0-0.6,0-0.9s0-0.6,0.1-0.9 c0-0.2,0-0.4,0-0.6C0.9,72.3,1,72,1,71.7c0-0.2,0-0.4,0-0.6c0-0.3,0-0.6,0-0.8c0-0.4,0-0.7,0-1.1c0-0.2,0-0.4,0.2-0.6 c0.1-0.1,0.3-0.2,0.4-0.1c0,0,0.1,0,0.1,0c0,0.1,0.1,0.3,0.2,0.5c0.1,0.2,0,0.4,0.1,0.6c0,0.1,0.1,0.3,0.1,0.4c0,0.1,0,0.2,0,0.3 c0,0.1,0,0.3,0,0.4c0,0.2,0,0.3,0,0.5c0,0.2,0,0.3,0,0.5c0,0.2,0,0.4,0,0.6c0,0.2,0,0.4,0,0.6c0,0.1,0,0.2,0,0.3c0,0.2,0,0.4,0,0.6 c0,0.3,0,0.6,0,0.9c0,0.3,0,0.5,0,0.8c0,0.4-0.1,0.8-0.1,1.1c0,0.2,0,0.3,0,0.5c0,0.2,0,0.5,0,0.7c0,0.1,0,0.2,0,0.3 c0,0.1,0,0.1,0,0.2c0.2,0.1,0.1,0.3,0.1,0.4c0,0.3,0,0.5,0,0.7c0,0.1,0,0.3,0,0.4c0,0,0,0.1,0,0.1c0.1,0.2,0.1,0.5,0.2,0.7 c0,0.2,0.2,0.3,0.2,0.5c0,0.1,0.1,0.1,0.2,0.3c0,0.1,0.2,0.2,0.3,0.2c0.2,0,0.3,0.1,0.5,0.1c0.4,0,0.8,0,1.2,0c0.2,0,0.3,0,0.4,0 c0.2,0,0.3,0,0.5,0c0.2,0,0.3,0,0.4,0c0,0,0.1,0,0.1,0c0.3-0.1,0.6-0.1,0.8,0c0.2,0,0.4,0.2,0.4,0.4C7.8,82.2,7.9,82.3,7.9,82.3z M2.2,81.5c-0.1-0.1-0.1-0.1-0.2-0.2c0,0.1,0,0.1,0,0.2C2.1,81.5,2.1,81.6,2.2,81.5C2.2,81.6,2.2,81.5,2.2,81.5z"></path> <path class="st1" d="M16,67.4c-0.1,0.3-0.2,0.6-0.3,0.9c0,0.1,0,0.3-0.1,0.4c0,0,0,0.1,0,0.1c0,0.2-0.1,0.4-0.1,0.6 c0,0.1-0.1,0.2-0.1,0.4c-0.1,0.3-0.2,0.6-0.3,0.9c-0.1,0.2-0.1,0.4-0.2,0.6c0,0,0,0.1,0,0.1c0,0.2-0.1,0.3-0.1,0.5 c-0.1,0.3-0.2,0.5-0.3,0.7c-0.1,0.3-0.1,0.6-0.2,0.8c-0.1,0.3-0.2,0.5-0.2,0.8c0,0,0,0.1,0,0.1c-0.1,0.2-0.1,0.4-0.2,0.5 c0,0.1,0,0.2-0.1,0.3c-0.1,0.3-0.2,0.5-0.2,0.7c0,0.2-0.1,0.3-0.2,0.5c0,0.1,0,0.1,0,0.2c0,0.2-0.1,0.3-0.1,0.5 c0,0.2-0.1,0.4-0.1,0.5c-0.1,0.2-0.1,0.5-0.2,0.7c0,0.1,0,0.2,0,0.3c0,0.1-0.1,0.2-0.1,0.3c0,0-0.1,0-0.1,0.1 c0,0.3-0.1,0.6-0.2,0.9c0,0.2-0.1,0.4-0.2,0.6C12,80.7,12.1,81,12,81.2c0,0,0,0,0,0c-0.2,0.1-0.1,0.3-0.2,0.5 c-0.1,0.3-0.2,0.6-0.2,0.8c-0.1,0.3-0.1,0.5-0.2,0.8c0,0.2-0.1,0.3-0.2,0.5C11.1,83.9,11,84,10.9,84c-0.2,0.1-0.3,0.1-0.5,0.2 c-0.1,0-0.2-0.1-0.1-0.3c0-0.4,0-0.8,0.1-1.2c0-0.2,0.1-0.5,0.1-0.7c0-0.3,0.1-0.6,0.2-0.9c0-0.2,0.1-0.3,0.1-0.5 c0-0.2,0.1-0.3,0.1-0.4c0-0.3,0.1-0.5,0.2-0.7c0.1-0.5,0.2-1,0.3-1.5c0.1-0.2,0.1-0.5,0.2-0.7c0,0,0-0.1,0-0.1 c-0.2-0.3-0.4-0.6-0.6-1c-0.1-0.1-0.1-0.3-0.1-0.4c-0.1-0.3-0.2-0.6-0.3-0.9c0,0,0-0.1,0-0.1c0,0,0,0,0.1,0c0,0,0,0,0,0 c0,0,0,0-0.1,0c-0.2-0.7-0.5-1.4-0.7-2.1c0-0.1-0.1-0.2-0.1-0.2c-0.1-0.4-0.3-0.8-0.4-1.1C9.2,71,9.1,70.6,9,70.2 c-0.1-0.2-0.2-0.4-0.2-0.6c-0.1-0.5-0.3-1.1-0.4-1.6c-0.1-0.3-0.1-0.6-0.1-0.9c0-0.2,0.1-0.4,0.3-0.4c0.1,0,0.3,0,0.4,0 c0,0,0,0,0,0C9,66.9,9.1,67,9.1,67c0.1,0.1,0.2,0.3,0.3,0.4c0.1,0.1,0.2,0.3,0.2,0.4c0.1,0.2,0.1,0.3,0.2,0.4 c0.1,0.3,0.2,0.5,0.3,0.8c0,0.2,0.1,0.3,0.2,0.5c0,0,0,0,0,0c0,0,0,0,0,0c0.1,0.2,0.1,0.4,0.2,0.6c0,0,0,0-0.1,0.1c0,0,0.1,0,0.1,0 c0,0.1,0.1,0.1,0.1,0.2c0,0,0,0.1,0,0.2c0,0,0,0.1,0,0.1c0,0,0.1,0,0.1,0.1c0.1,0.2,0.2,0.4,0.2,0.6c0,0,0,0,0,0 c0,0.3,0.2,0.6,0.3,0.8c0,0.1,0,0.3,0.1,0.4c0.1,0.2,0.2,0.5,0.3,0.7c0.1,0.3,0.2,0.6,0.3,0.9c0,0.2,0.1,0.3,0.2,0.5 c0,0,0.1,0,0.2,0c0.4-1.2,0.7-2.4,1.1-3.5c0.1-0.1,0.3-0.1,0.4-0.2c0,0,0,0,0,0c-0.1,0-0.1-0.1-0.2-0.1c0,0,0,0,0,0.1 c0-0.2,0-0.3,0.1-0.4c0,0,0,0,0,0c0-0.1,0-0.2,0.1-0.3c0,0,0.1,0,0.1,0c0,0,0,0.1,0,0.1c0,0,0,0,0,0c0,0,0-0.1,0-0.1 c0,0,0,0,0.1-0.1c0,0,0,0,0,0c0,0-0.1,0-0.2,0c0,0,0,0,0,0c0-0.2,0.1-0.4,0.1-0.5c0-0.1,0-0.2,0.1-0.3c0,0,0,0,0.1-0.1 c0-0.2,0-0.3,0.1-0.4c0-0.2,0-0.3,0.1-0.5h0c0-0.2,0.1-0.4,0.2-0.6c0.1-0.4,0.2-0.7,0.4-1.1c0-0.1,0.1-0.1,0.1-0.2 c0-0.1,0.1-0.1,0.2,0c0.2-0.1,0.3-0.1,0.5,0c0,0,0.1,0,0.1,0c0.2,0,0.2,0,0.3,0.2C16,67.1,16,67.2,16,67.4z M13.9,70.8 c0,0,0-0.1,0-0.1c0,0-0.1,0-0.1,0c0,0,0,0,0,0C13.7,70.7,13.8,70.8,13.9,70.8z M14.1,69.8c0,0-0.1-0.1-0.1-0.1c0,0,0,0,0,0 c0,0,0,0.1,0,0.1c0,0-0.1,0-0.1,0C13.9,69.8,14,69.8,14.1,69.8C14.1,69.8,14.1,69.8,14.1,69.8z"></path> <path class="st1" d="M18.7,75.7c0.1-0.1,0.1,0.1,0.2,0c0,0,0,0,0,0c0.1,0,0.2,0,0.3,0.1c0-0.1,0.1-0.1,0.1-0.1 c0.1-0.1,0.2-0.1,0.3,0c0,0,0.1-0.1,0.1,0c0.1-0.1,0.1,0,0.2-0.1c0.1,0,0.3,0,0.4,0c0,0,0.1,0.1,0.1,0.1c0-0.2,0.1-0.2,0.1-0.2 c0.1,0,0.3,0,0.4,0c0.3,0,0.5-0.1,0.7-0.1c0.3,0,0.5,0,0.8,0c0,0,0,0,0.1,0.1c0-0.1,0-0.1,0.1-0.1c0.4,0,0.8-0.1,1.1,0.3 c0.1,0.1,0.1,0.2,0.1,0.4c0,0.2,0,0.4,0,0.6c0,0.5-0.2,0.5-0.3,0.5c-0.6,0.1-1.1,0.2-1.7,0.1c-0.1,0-0.2,0-0.3,0 c-0.2,0-0.4,0-0.6,0c-0.1,0-0.2,0-0.3,0c0,0,0,0-0.1,0c0,0,0,0,0,0c0,0,0,0,0,0.1c0,0,0,0,0,0c-0.3,0-0.7,0-1,0c0,0,0,0,0,0 c0,0,0,0,0-0.1c0,0,0,0,0,0c0,0,0,0,0,0c0,0,0,0,0,0c-0.6,0-1.2,0.2-1.8,0.1c-0.3,0-0.5,0-0.7-0.1c-0.2-0.1-0.1-0.4-0.1-0.6 c0-0.3,0.1-0.6,0.2-0.7c0.1-0.2,0.2-0.3,0.4-0.3c0.1,0,0.3,0,0.4,0C18.1,75.7,18.3,75.6,18.7,75.7C18.6,75.6,18.6,75.6,18.7,75.7z M17,76.8C17,76.9,17,76.7,17,76.8C17,76.8,17,76.8,17,76.8c0.1-0.1,0.1-0.1,0.1-0.1C17,76.7,17,76.8,17,76.8z M17.2,76.1 C17.2,76.2,17.2,76.2,17.2,76.1C17.1,76.2,17.1,76.2,17.2,76.1C17.1,76.2,17.1,76.2,17.2,76.1C17.1,76.2,17.2,76.2,17.2,76.1 C17.2,76.2,17.2,76.2,17.2,76.1z M17.2,76.3C17.2,76.3,17.2,76.3,17.2,76.3c0,0.1,0,0.1-0.1,0.1c0,0,0,0,0,0 C17.2,76.4,17.2,76.3,17.2,76.3C17.2,76.3,17.2,76.3,17.2,76.3z M17.3,76.3C17.3,76.3,17.3,76.3,17.3,76.3c0-0.1,0-0.1,0-0.1 L17.3,76.3C17.3,76.3,17.3,76.3,17.3,76.3z M17.4,75.9c0,0,0-0.1,0-0.1C17.3,75.8,17.3,75.9,17.4,75.9 C17.3,75.9,17.3,75.9,17.4,75.9C17.4,76,17.4,75.9,17.4,75.9z M17.5,76.1C17.6,76.1,17.5,76,17.5,76.1c0-0.1,0-0.1,0-0.2 c0,0-0.1-0.1-0.1,0.1C17.4,76.1,17.5,76.1,17.5,76.1C17.5,76.1,17.5,76.1,17.5,76.1z M17.5,75.8C17.5,75.8,17.4,75.8,17.5,75.8 C17.4,75.8,17.4,75.8,17.5,75.8C17.4,75.8,17.4,75.8,17.5,75.8L17.5,75.8z M17.5,76.8L17.5,76.8L17.5,76.8z M17.6,76.2 C17.6,76.1,17.6,76.1,17.6,76.2C17.6,76.1,17.6,76.1,17.6,76.2C17.6,76.2,17.6,76.2,17.6,76.2z M17.7,75.8 C17.7,75.8,17.6,75.7,17.7,75.8C17.6,75.7,17.6,75.8,17.7,75.8C17.6,75.9,17.6,75.8,17.7,75.8C17.7,75.8,17.7,75.8,17.7,75.8z M17.7,75.7L17.7,75.7C17.7,75.7,17.7,75.8,17.7,75.7C17.8,75.8,17.8,75.8,17.7,75.7C17.8,75.7,17.8,75.7,17.7,75.7z M17.7,75.9 L17.7,75.9C17.7,75.9,17.7,75.9,17.7,75.9z M17.8,76.1C17.8,76.1,17.8,76.1,17.8,76.1C17.8,76.1,17.8,76.1,17.8,76.1 C17.8,76.1,17.8,76.1,17.8,76.1C17.8,76.1,17.8,76.1,17.8,76.1z M17.8,76.1L17.8,76.1L17.8,76.1z M17.9,75.8 C17.9,75.8,17.9,75.8,17.9,75.8L17.9,75.8C17.9,75.8,17.9,75.8,17.9,75.8C17.9,75.8,17.9,75.8,17.9,75.8z M17.8,76.1L17.8,76.1 L17.8,76.1L17.8,76.1z M17.9,76L17.9,76C17.9,76,17.9,76,17.9,76L17.9,76C17.9,76,17.9,76,17.9,76z M17.9,76.3L17.9,76.3 C17.9,76.3,17.9,76.3,17.9,76.3C17.9,76.3,17.9,76.3,17.9,76.3z M17.9,75.7C17.9,75.7,17.9,75.7,17.9,75.7 C17.9,75.7,17.9,75.7,17.9,75.7z M17.9,76C18,75.9,18,75.9,17.9,76c0-0.1,0-0.1,0-0.1C17.9,75.9,17.9,75.9,17.9,76 C17.9,75.9,17.9,76,17.9,76z M17.9,75.8C18,75.8,18,75.8,17.9,75.8C18,75.8,18,75.8,17.9,75.8z M18,77.3L18,77.3 C18,77.3,18,77.3,18,77.3C18,77.3,18,77.3,18,77.3z M18,76L18,76C18,76,18,76,18,76C18,76,18,76,18,76C18,76,18,76,18,76z M18.1,76 c0,0,0,0.1,0,0.1c0,0,0,0,0.1,0s0,0,0,0C18.1,76,18.1,76,18.1,76z M18.1,76.8L18.1,76.8C18.1,76.9,18.1,76.8,18.1,76.8 C18.1,76.8,18.1,76.8,18.1,76.8z M18.1,75.9C18.1,76,18.1,76,18.1,75.9L18.1,75.9C18.2,76,18.2,75.9,18.1,75.9z M18.2,75.9 L18.2,75.9C18.2,75.9,18.2,75.9,18.2,75.9C18.2,75.9,18.2,75.9,18.2,75.9C18.2,75.9,18.2,75.9,18.2,75.9z M18.2,75.7 C18.2,75.7,18.2,75.7,18.2,75.7C18.2,75.7,18.2,75.8,18.2,75.7C18.2,75.8,18.2,75.7,18.2,75.7C18.2,75.7,18.2,75.7,18.2,75.7z M18.3,76.1C18.3,76,18.3,76,18.3,76.1C18.3,76,18.3,76,18.3,76.1C18.3,76.1,18.3,76.1,18.3,76.1C18.3,76.1,18.3,76.1,18.3,76.1z M18.4,75.8L18.4,75.8C18.4,75.8,18.4,75.8,18.4,75.8C18.4,75.9,18.4,75.9,18.4,75.8C18.4,75.9,18.4,75.8,18.4,75.8z M18.5,75.8 L18.5,75.8L18.5,75.8L18.5,75.8L18.5,75.8z M18.5,76.3L18.5,76.3L18.5,76.3L18.5,76.3z M18.5,76.2L18.5,76.2c0,0,0-0.1,0-0.1 C18.5,76.1,18.5,76.1,18.5,76.2C18.5,76.1,18.5,76.2,18.5,76.2z M18.6,75.8c0,0-0.1-0.1-0.1-0.1l0,0C18.5,75.8,18.5,75.9,18.6,75.8 C18.6,75.9,18.6,75.9,18.6,75.8z M18.5,76.4C18.5,76.4,18.5,76.4,18.5,76.4C18.5,76.4,18.5,76.4,18.5,76.4S18.5,76.4,18.5,76.4z M18.6,76.4L18.6,76.4C18.5,76.4,18.6,76.4,18.6,76.4C18.6,76.4,18.6,76.4,18.6,76.4z M18.6,76.1L18.6,76.1L18.6,76.1L18.6,76.1 L18.6,76.1z M18.6,76.7C18.6,76.7,18.6,76.7,18.6,76.7C18.6,76.7,18.6,76.7,18.6,76.7z M18.7,75.8C18.7,75.8,18.7,75.8,18.7,75.8 C18.7,75.8,18.7,75.8,18.7,75.8C18.7,75.8,18.7,75.8,18.7,75.8C18.8,75.8,18.8,75.8,18.7,75.8C18.8,75.8,18.7,75.8,18.7,75.8z M18.7,75.9C18.7,75.9,18.7,75.9,18.7,75.9S18.7,75.9,18.7,75.9z M18.7,76.4C18.7,76.3,18.7,76.3,18.7,76.4L18.7,76.4 C18.7,76.4,18.7,76.4,18.7,76.4C18.7,76.4,18.7,76.4,18.7,76.4z M18.8,76C18.8,76,18.8,76,18.8,76C18.7,76,18.7,76,18.8,76 C18.8,76,18.8,76,18.8,76z M18.8,76.4C18.8,76.4,18.8,76.5,18.8,76.4L18.8,76.4C18.8,76.5,18.8,76.5,18.8,76.4L18.8,76.4 C18.8,76.4,18.8,76.4,18.8,76.4C18.8,76.4,18.8,76.4,18.8,76.4C18.8,76.4,18.8,76.4,18.8,76.4C18.8,76.4,18.8,76.4,18.8,76.4 L18.8,76.4z M18.8,76.9L18.8,76.9C18.8,76.8,18.8,76.8,18.8,76.9C18.8,76.8,18.8,76.8,18.8,76.9C18.8,76.9,18.8,76.9,18.8,76.9z M18.8,75.6L18.8,75.6C18.8,75.6,18.8,75.6,18.8,75.6C18.8,75.6,18.8,75.6,18.8,75.6z M18.8,76.3C18.8,76.4,18.8,76.4,18.8,76.3 C18.8,76.4,18.8,76.4,18.8,76.3C18.8,76.3,18.8,76.3,18.8,76.3z M18.8,77.2L18.8,77.2C18.8,77.2,18.8,77.2,18.8,77.2z M19,75.7 C18.9,75.7,18.9,75.7,19,75.7C18.9,75.7,18.9,75.7,19,75.7L19,75.7C18.9,75.7,18.9,75.7,19,75.7z M18.9,76.1L18.9,76.1 C18.9,76.1,18.9,76.2,18.9,76.1L18.9,76.1C18.9,76.1,18.9,76.1,18.9,76.1z M19,76.9C18.9,76.9,18.9,76.9,19,76.9 C18.9,77,18.9,77,19,76.9C19,77,19,77,19,76.9C19,76.9,19,76.9,19,76.9z M19,76L19,76C19,76,19,76,19,76C19,76,19,76,19,76 C19,76,19,76,19,76z M19,76.9L19,76.9L19,76.9z M19.1,76.8C19.1,76.8,19.1,76.8,19.1,76.8C19.1,76.8,19.1,76.9,19.1,76.8 c0,0.1,0,0.1,0,0.1C19.1,76.9,19.1,76.9,19.1,76.8C19.1,76.8,19.1,76.8,19.1,76.8C19.1,76.8,19.1,76.8,19.1,76.8L19.1,76.8 L19.1,76.8z M19.1,76.8C19.1,76.9,19.1,76.9,19.1,76.8C19.1,76.9,19.1,76.9,19.1,76.8z M19.1,76C19.1,76,19.1,76,19.1,76 c0,0.1,0,0.2,0,0.2c0,0,0,0,0,0c0,0,0,0,0-0.1C19.1,76.1,19.1,76,19.1,76z M19.1,76.4L19.1,76.4C19.1,76.4,19.1,76.4,19.1,76.4 C19.1,76.4,19.1,76.4,19.1,76.4C19.1,76.4,19.1,76.4,19.1,76.4z M19.1,77.1C19.1,77.1,19.1,77.1,19.1,77.1 C19.1,77.1,19.1,77.1,19.1,77.1C19.1,77.2,19.1,77.1,19.1,77.1C19.2,77.1,19.1,77.1,19.1,77.1z M19.1,75.7L19.1,75.7 C19.1,75.7,19.1,75.8,19.1,75.7L19.1,75.7C19.1,75.8,19.1,75.8,19.1,75.7z M19.2,76.7C19.2,76.7,19.2,76.7,19.2,76.7 C19.1,76.7,19.1,76.7,19.2,76.7C19.1,76.8,19.1,76.8,19.2,76.7C19.2,76.8,19.2,76.7,19.2,76.7z M19.1,77.2L19.1,77.2L19.1,77.2z M19.2,76.3C19.2,76.3,19.2,76.3,19.2,76.3S19.2,76.3,19.2,76.3z M19.2,76C19.2,76,19.2,76,19.2,76c0.1-0.1,0.1-0.2,0-0.2 C19.2,75.8,19.2,76,19.2,76C19.2,76,19.2,76,19.2,76C19.2,76.1,19.2,76,19.2,76z M19.3,76.6C19.3,76.6,19.3,76.6,19.3,76.6 L19.3,76.6C19.2,76.6,19.3,76.6,19.3,76.6L19.3,76.6z M19.3,76.9C19.3,76.8,19.3,76.8,19.3,76.9C19.3,76.8,19.3,76.9,19.3,76.9 L19.3,76.9z M19.3,76.3c0.1,0,0.1,0,0.2-0.1c0.1,0,0.1-0.1,0.1-0.3c0,0,0,0,0,0c0,0.1,0,0.1,0,0.2c0,0,0,0-0.1,0c0,0,0-0.1,0-0.1 c0,0,0-0.1,0-0.1c-0.1,0-0.1,0-0.2,0.1C19.3,76.1,19.3,76.2,19.3,76.3C19.3,76.3,19.3,76.3,19.3,76.3z M19.3,75.8L19.3,75.8 C19.3,75.8,19.3,75.8,19.3,75.8L19.3,75.8C19.3,75.8,19.3,75.8,19.3,75.8z M19.3,77.2C19.3,77.2,19.3,77.2,19.3,77.2 C19.4,77.2,19.4,77.2,19.3,77.2C19.3,77.2,19.3,77.2,19.3,77.2C19.3,77.2,19.3,77.2,19.3,77.2z M19.3,77.2 C19.3,77.2,19.3,77.2,19.3,77.2S19.3,77.2,19.3,77.2z M19.3,75.7C19.3,75.7,19.3,75.7,19.3,75.7C19.3,75.7,19.3,75.7,19.3,75.7z M19.3,75.8C19.3,75.8,19.4,75.8,19.3,75.8C19.4,75.8,19.4,75.8,19.3,75.8C19.4,75.8,19.4,75.8,19.3,75.8c0.1,0,0.1,0.1,0.1,0.1 c0,0,0.1-0.1,0.1-0.1c0-0.1-0.1-0.1-0.2-0.1C19.3,75.7,19.4,75.7,19.3,75.8L19.3,75.8z M19.4,76.2L19.4,76.2 C19.3,76.3,19.3,76.2,19.4,76.2C19.3,76.2,19.4,76.2,19.4,76.2C19.4,76.2,19.4,76.2,19.4,76.2z M19.4,76.8 C19.4,76.7,19.4,76.7,19.4,76.8L19.4,76.8C19.3,76.7,19.4,76.8,19.4,76.8C19.4,76.8,19.4,76.8,19.4,76.8z M19.5,76.5 C19.5,76.5,19.5,76.5,19.5,76.5L19.5,76.5C19.5,76.5,19.5,76.5,19.5,76.5C19.5,76.5,19.5,76.5,19.5,76.5z M19.6,75.7 C19.6,75.6,19.6,75.6,19.6,75.7C19.5,75.6,19.5,75.6,19.6,75.7C19.6,75.6,19.6,75.7,19.6,75.7C19.6,75.7,19.6,75.7,19.6,75.7 C19.6,75.7,19.6,75.7,19.6,75.7z M19.6,75.7L19.6,75.7L19.6,75.7z M19.7,76c0-0.1-0.1,0,0-0.1c0,0,0,0,0,0 C19.6,75.9,19.6,76,19.7,76C19.7,76,19.7,76,19.7,76z M19.7,76.1C19.7,76.1,19.7,76.1,19.7,76.1C19.6,76.1,19.6,76.1,19.7,76.1 C19.6,76.1,19.6,76.1,19.7,76.1C19.7,76.2,19.7,76.1,19.7,76.1z M19.8,75.7L19.8,75.7C19.8,75.7,19.8,75.7,19.8,75.7 c-0.1,0.1,0,0.1,0,0.1C19.8,75.8,19.8,75.7,19.8,75.7z M19.8,75.9C19.8,75.9,19.8,76,19.8,75.9C19.8,76,19.8,75.9,19.8,75.9 C19.9,75.9,19.9,75.9,19.8,75.9C19.8,75.9,19.8,75.9,19.8,75.9C19.8,75.9,19.8,75.9,19.8,75.9z M19.9,76.6 C19.9,76.5,19.9,76.5,19.9,76.6C19.9,76.5,19.9,76.5,19.9,76.6C19.9,76.6,19.9,76.6,19.9,76.6C19.9,76.6,19.9,76.6,19.9,76.6z M19.9,76.2C19.9,76.2,19.9,76.2,19.9,76.2S19.9,76.2,19.9,76.2z M19.9,75.7C19.9,75.7,19.9,75.7,19.9,75.7L19.9,75.7 C19.9,75.7,19.9,75.7,19.9,75.7C19.9,75.7,19.9,75.7,19.9,75.7z M20,75.8C20,75.8,20,75.8,20,75.8c-0.1,0,0,0.3-0.1,0.3 c0,0,0,0,0.1,0C20.1,76.1,19.9,75.9,20,75.8z M19.9,77C19.9,77,19.9,77,19.9,77C19.9,77,19.9,77,19.9,77C19.9,77,19.9,77,19.9,77z M20,76.4C20,76.4,20,76.4,20,76.4C20,76.4,20,76.4,20,76.4C20,76.4,20,76.4,20,76.4C20,76.4,20,76.4,20,76.4 C20,76.4,20,76.4,20,76.4z M20,77C20,77,20,77,20,77C20,77,20,77,20,77z M20.1,75.9C20.1,75.9,20.1,75.9,20.1,75.9 C20,75.9,20,75.9,20.1,75.9C20,75.9,20,75.9,20.1,75.9C20.1,75.9,20.1,75.9,20.1,75.9z M20,76.4C20,76.4,20,76.4,20,76.4 S20,76.4,20,76.4z M20,76.9C20,76.8,20,76.8,20,76.9C20,76.9,20,76.9,20,76.9C20,76.9,20,76.9,20,76.9z M20,77C20,77,20,77,20,77 L20,77z M20.1,76.8C20.1,76.8,20.1,76.8,20.1,76.8C20.1,76.8,20.1,76.8,20.1,76.8C20.1,76.8,20.1,76.8,20.1,76.8 C20.1,76.8,20.1,76.8,20.1,76.8z M20.1,76.6C20.1,76.6,20.1,76.6,20.1,76.6L20.1,76.6C20.1,76.6,20.1,76.6,20.1,76.6 C20.1,76.6,20.1,76.6,20.1,76.6z M20.1,75.8C20.1,75.8,20.1,75.8,20.1,75.8C20.1,75.8,20.1,75.8,20.1,75.8 C20.1,75.8,20.1,75.8,20.1,75.8C20.1,75.8,20.1,75.8,20.1,75.8z M20.1,76.4L20.1,76.4L20.1,76.4C20.1,76.4,20.1,76.4,20.1,76.4 C20.1,76.4,20.1,76.4,20.1,76.4z M20.1,76.8L20.1,76.8C20.2,76.8,20.2,76.8,20.1,76.8C20.2,76.8,20.2,76.8,20.1,76.8 C20.2,76.8,20.1,76.8,20.1,76.8z M20.2,75.8C20.2,75.9,20.2,75.9,20.2,75.8C20.2,75.9,20.2,75.9,20.2,75.8 C20.2,75.8,20.2,75.8,20.2,75.8C20.2,75.8,20.2,75.8,20.2,75.8z M20.2,76.2C20.2,76.2,20.2,76.2,20.2,76.2L20.2,76.2 C20.2,76.2,20.2,76.2,20.2,76.2z M20.2,76.6C20.2,76.6,20.2,76.6,20.2,76.6L20.2,76.6C20.2,76.6,20.2,76.6,20.2,76.6L20.2,76.6z M20.2,75.7C20.2,75.6,20.2,75.6,20.2,75.7C20.2,75.6,20.2,75.6,20.2,75.7z M20.2,75.8L20.2,75.8C20.3,75.7,20.2,75.7,20.2,75.8 C20.2,75.7,20.2,75.7,20.2,75.8z M20.3,76.3C20.3,76.3,20.3,76.2,20.3,76.3C20.3,76.2,20.3,76.2,20.3,76.3 C20.3,76.3,20.3,76.3,20.3,76.3z M20.3,76.6L20.3,76.6C20.3,76.6,20.3,76.6,20.3,76.6z M20.3,75.7C20.3,75.7,20.3,75.7,20.3,75.7 L20.3,75.7z M20.4,76.8C20.4,76.7,20.3,76.7,20.4,76.8L20.4,76.8C20.3,76.8,20.3,76.8,20.4,76.8C20.4,76.8,20.4,76.8,20.4,76.8z M20.3,76L20.3,76C20.4,76,20.4,76,20.3,76C20.4,76,20.3,76,20.3,76z M20.4,76.4C20.4,76.4,20.4,76.4,20.4,76.4L20.4,76.4 C20.4,76.4,20.3,76.4,20.4,76.4C20.3,76.4,20.4,76.4,20.4,76.4z M20.4,75.8C20.4,75.8,20.4,75.8,20.4,75.8 C20.4,75.8,20.3,75.8,20.4,75.8C20.4,75.8,20.4,75.8,20.4,75.8C20.4,75.8,20.4,75.8,20.4,75.8z M20.4,77.1 C20.4,77.1,20.4,77.1,20.4,77.1L20.4,77.1L20.4,77.1L20.4,77.1z M20.4,76.6L20.4,76.6C20.4,76.7,20.4,76.7,20.4,76.6 C20.4,76.7,20.4,76.7,20.4,76.6C20.4,76.7,20.4,76.6,20.4,76.6z M20.4,77.1L20.4,77.1C20.4,77.1,20.4,77.1,20.4,77.1 C20.4,77.1,20.4,77.1,20.4,77.1S20.4,77.1,20.4,77.1z M20.4,77.2L20.4,77.2C20.4,77.2,20.4,77.2,20.4,77.2z M20.5,76 C20.5,76,20.5,76,20.5,76L20.5,76C20.5,76.1,20.5,76,20.5,76C20.5,76,20.5,76,20.5,76z M20.5,76.2c0,0,0-0.1,0-0.1 C20.4,76.1,20.4,76.1,20.5,76.2C20.4,76.2,20.5,76.2,20.5,76.2C20.5,76.2,20.5,76.2,20.5,76.2z M20.5,75.7 C20.5,75.7,20.5,75.7,20.5,75.7C20.5,75.8,20.5,75.8,20.5,75.7C20.5,75.7,20.5,75.7,20.5,75.7z M20.5,77C20.5,77,20.5,77,20.5,77 C20.5,77.1,20.5,77.1,20.5,77C20.5,77.1,20.5,77.1,20.5,77z M20.5,75.6c0,0,0,0.1,0,0.1C20.5,75.7,20.5,75.7,20.5,75.6 C20.5,75.6,20.5,75.6,20.5,75.6C20.5,75.6,20.5,75.6,20.5,75.6z M20.5,77C20.5,77,20.5,77,20.5,77L20.5,77z M20.6,76.4 C20.6,76.4,20.6,76.4,20.6,76.4c-0.1,0.1,0,0.1,0,0.2c0,0,0,0,0,0C20.6,76.6,20.6,76.5,20.6,76.4L20.6,76.4 C20.6,76.5,20.6,76.4,20.6,76.4z M20.6,76.5L20.6,76.5L20.6,76.5z M20.6,76L20.6,76L20.6,76z M20.6,76.3 C20.6,76.3,20.6,76.3,20.6,76.3c0-0.1,0-0.1,0-0.1C20.6,76.3,20.6,76.3,20.6,76.3C20.6,76.3,20.6,76.3,20.6,76.3z M20.6,76.3 C20.6,76.3,20.6,76.3,20.6,76.3C20.6,76.3,20.6,76.3,20.6,76.3z M20.6,77.1L20.6,77.1C20.6,77.1,20.6,77.1,20.6,77.1 C20.6,77.1,20.6,77.1,20.6,77.1C20.6,77.1,20.6,77.1,20.6,77.1z M20.6,76.1L20.6,76.1C20.6,76.1,20.6,76,20.6,76.1 C20.6,76.1,20.6,76.1,20.6,76.1z M20.7,76.9C20.7,76.9,20.7,76.9,20.7,76.9C20.7,76.9,20.7,76.9,20.7,76.9 C20.7,76.9,20.7,76.9,20.7,76.9C20.7,77,20.7,76.9,20.7,76.9z M20.7,75.9L20.7,75.9L20.7,75.9z M20.7,76L20.7,76 C20.7,76,20.7,76,20.7,76C20.7,76,20.7,76,20.7,76C20.7,76,20.7,76,20.7,76L20.7,76z M20.7,76.5c0,0,0-0.1,0.1-0.2c0,0,0,0,0-0.1 C20.7,76.3,20.7,76.4,20.7,76.5C20.7,76.5,20.7,76.5,20.7,76.5z M20.7,75.6C20.7,75.6,20.7,75.6,20.7,75.6 C20.7,75.6,20.7,75.6,20.7,75.6C20.7,75.6,20.7,75.6,20.7,75.6z M20.7,76.1L20.7,76.1C20.7,76.1,20.7,76.1,20.7,76.1z M20.8,76.4 C20.8,76.5,20.8,76.5,20.8,76.4C20.8,76.4,20.8,76.4,20.8,76.4z M20.8,77.2C20.8,77.2,20.8,77.2,20.8,77.2L20.8,77.2 C20.8,77.2,20.8,77.2,20.8,77.2C20.8,77.2,20.8,77.2,20.8,77.2z M20.9,75.7C20.9,75.7,20.9,75.7,20.9,75.7 C20.8,75.6,20.8,75.7,20.9,75.7C20.8,75.7,20.8,75.7,20.9,75.7L20.9,75.7z M20.9,76.3C20.9,76.3,20.9,76.3,20.9,76.3 C20.9,76.3,20.9,76.3,20.9,76.3C20.8,76.3,20.8,76.3,20.9,76.3C20.8,76.3,20.8,76.3,20.9,76.3z M20.9,76L20.9,76L20.9,76L20.9,76z M20.9,76.6C20.9,76.6,20.9,76.6,20.9,76.6C20.9,76.6,20.9,76.7,20.9,76.6C20.9,76.7,20.9,76.6,20.9,76.6z M20.9,76.4 C20.9,76.4,20.9,76.4,20.9,76.4C20.9,76.3,20.9,76.3,20.9,76.4C20.9,76.3,20.9,76.3,20.9,76.4C20.9,76.3,20.9,76.3,20.9,76.4 C20.9,76.3,20.9,76.3,20.9,76.4z M20.9,77.2L20.9,77.2L20.9,77.2z M21,76.1C21,76.1,21,76,21,76.1L21,76.1 C20.9,76.1,20.9,76.1,21,76.1C21,76.1,21,76.1,21,76.1z M21,75.9C21,75.9,21,75.9,21,75.9L21,75.9z M21,76.2 C21,76.3,21,76.3,21,76.2c-0.1,0.2-0.1,0.3,0,0.4c0.1,0.1,0-0.1,0.1-0.2C21.1,76.4,21.1,76.3,21,76.2z M21,75.8 C21,75.8,21,75.8,21,75.8L21,75.8C21,75.7,21,75.7,21,75.8C21,75.8,21,75.8,21,75.8z M21.1,75.7C21.1,75.7,21.1,75.7,21.1,75.7 C21.1,75.7,21.1,75.8,21.1,75.7c0,0.1-0.1,0.1-0.1,0.1c0,0,0,0.1,0.1,0.1c0,0,0.1,0,0.1,0c0-0.1,0,0,0,0 C21.1,75.9,21.1,75.8,21.1,75.7C21.1,75.8,21.1,75.8,21.1,75.7z M21.2,76.6c0,0,0-0.1,0-0.1h0h0c0,0.1-0.1,0.1-0.1,0.2 C21.1,76.7,21.2,76.7,21.2,76.6z M21.1,76.4C21.1,76.4,21.1,76.4,21.1,76.4L21.1,76.4C21.1,76.4,21.1,76.4,21.1,76.4 C21.1,76.4,21.1,76.4,21.1,76.4z M21.1,76.9C21.1,76.9,21.1,76.9,21.1,76.9L21.1,76.9L21.1,76.9C21.1,76.9,21.1,76.9,21.1,76.9z M21.3,75.7C21.3,75.7,21.3,75.7,21.3,75.7c0-0.1-0.1-0.2-0.1-0.1C21.1,75.7,21.2,75.7,21.3,75.7c0,0.1,0,0.2,0,0.2 s0.1-0.1,0.1-0.1c0,0,0-0.1,0.1-0.1c0,0,0-0.1,0-0.1c0,0-0.1,0-0.1,0c0,0,0,0,0,0.1c0,0,0,0,0,0c-0.1,0.1,0-0.2-0.1-0.1 c0,0,0,0,0,0c0,0,0,0,0,0C21.4,75.6,21.3,75.7,21.3,75.7z M21.2,76.2C21.2,76.2,21.2,76.2,21.2,76.2C21.2,76.2,21.2,76.2,21.2,76.2 C21.2,76.2,21.2,76.2,21.2,76.2z M21.2,76.9L21.2,76.9C21.2,76.9,21.2,76.9,21.2,76.9L21.2,76.9L21.2,76.9z M21.2,76.3 C21.3,76.3,21.3,76.3,21.2,76.3c0.1,0.1,0.1,0.1,0.1,0C21.3,76.2,21.3,76.2,21.2,76.3C21.3,76.2,21.3,76.3,21.2,76.3z M21.3,76.5 c0-0.1,0-0.1,0-0.1C21.3,76.5,21.2,76.6,21.3,76.5c0,0.1,0,0.1,0,0.1c0,0,0,0,0,0S21.3,76.6,21.3,76.5 C21.3,76.6,21.3,76.6,21.3,76.5z M21.3,75.8C21.3,75.9,21.3,75.9,21.3,75.8L21.3,75.8z M21.4,76.4C21.4,76.4,21.4,76.4,21.4,76.4 C21.3,76.4,21.3,76.4,21.4,76.4C21.3,76.4,21.4,76.5,21.4,76.4C21.4,76.5,21.4,76.5,21.4,76.4C21.5,76.4,21.4,76.4,21.4,76.4 C21.4,76.4,21.4,76.4,21.4,76.4z M21.4,76C21.4,76,21.4,76,21.4,76L21.4,76C21.4,75.9,21.4,75.9,21.4,76C21.4,76,21.4,76,21.4,76z M21.4,76.6L21.4,76.6C21.4,76.6,21.4,76.6,21.4,76.6z M21.4,76.4C21.4,76.4,21.4,76.4,21.4,76.4C21.4,76.4,21.4,76.4,21.4,76.4z M21.5,76.1L21.5,76.1C21.5,76.1,21.5,76.1,21.5,76.1L21.5,76.1C21.4,76.1,21.5,76.1,21.5,76.1z M21.5,76.6 C21.5,76.6,21.5,76.6,21.5,76.6C21.5,76.6,21.5,76.7,21.5,76.6C21.5,76.7,21.5,76.7,21.5,76.6z M21.5,76.2L21.5,76.2L21.5,76.2z M21.6,75.6C21.6,75.6,21.5,75.6,21.6,75.6C21.5,75.6,21.5,75.6,21.6,75.6C21.5,75.6,21.5,75.6,21.6,75.6 C21.6,75.6,21.6,75.6,21.6,75.6z M21.5,76.2c0,0,0.1,0.1,0.1,0.1c0,0,0,0,0,0c0,0,0,0,0,0v0C21.6,76.2,21.6,76.1,21.5,76.2z M21.5,76.4C21.5,76.4,21.5,76.4,21.5,76.4C21.5,76.4,21.5,76.4,21.5,76.4C21.5,76.4,21.5,76.4,21.5,76.4z M21.6,75.7 C21.6,75.8,21.6,75.7,21.6,75.7l0.1,0C21.6,75.7,21.6,75.7,21.6,75.7C21.6,75.7,21.6,75.7,21.6,75.7z M21.6,76.4L21.6,76.4 C21.7,76.4,21.7,76.4,21.6,76.4C21.7,76.4,21.7,76.4,21.6,76.4z M21.7,75.5C21.7,75.5,21.7,75.5,21.7,75.5 C21.7,75.5,21.7,75.5,21.7,75.5C21.7,75.5,21.7,75.5,21.7,75.5L21.7,75.5z M21.8,76.1C21.8,76,21.8,76,21.8,76.1 C21.8,76,21.9,76,21.8,76.1c0.2-0.1,0.2,0.2,0.3,0.1c0,0,0,0,0,0c0,0,0-0.1,0-0.2c0,0,0,0,0,0c0,0,0,0.1,0,0.1v0h0 c0-0.3-0.2-0.1-0.3-0.3c0,0,0,0,0,0c0,0-0.1,0-0.1,0.1C21.7,76,21.7,76,21.8,76.1C21.8,76,21.8,76,21.8,76.1z M21.7,76.8 M21.8,75.8C21.7,75.7,21.7,75.7,21.8,75.8C21.7,75.7,21.7,75.7,21.8,75.8C21.7,75.7,21.7,75.8,21.8,75.8 C21.8,75.8,21.8,75.8,21.8,75.8C21.8,75.8,21.8,75.8,21.8,75.8z M21.7,75.6C21.7,75.6,21.8,75.7,21.7,75.6 C21.8,75.7,21.8,75.7,21.7,75.6C21.8,75.6,21.8,75.6,21.7,75.6C21.7,75.6,21.7,75.6,21.7,75.6z M21.8,76.2 C21.8,76.2,21.8,76.2,21.8,76.2L21.8,76.2z M21.8,76C21.8,76,21.8,76,21.8,76C21.8,76,21.8,76,21.8,76L21.8,76z M21.8,75.6 L21.8,75.6L21.8,75.6C21.8,75.6,21.8,75.6,21.8,75.6z M21.9,75.8C21.9,75.8,21.9,75.8,21.9,75.8L21.9,75.8 C21.8,75.8,21.9,75.8,21.9,75.8C21.9,75.9,21.9,75.8,21.9,75.8z M21.8,76.4C21.8,76.4,21.8,76.4,21.8,76.4S21.8,76.4,21.8,76.4z M21.9,75.6C21.9,75.6,21.9,75.6,21.9,75.6C21.9,75.7,21.9,75.7,21.9,75.6L21.9,75.6C21.9,75.7,21.9,75.7,21.9,75.6z M21.9,75.7 L21.9,75.7L21.9,75.7z M21.9,76.3c0,0,0,0.1,0,0.1c0,0,0,0,0,0C21.9,76.4,21.9,76.3,21.9,76.3z M21.9,77.1L21.9,77.1 C21.9,77,21.9,77,21.9,77.1z M22,75.9L22,75.9L22,75.9C22,75.9,22,75.9,22,75.9L22,75.9z M22.1,75.9C22.2,75.9,22.2,75.9,22.1,75.9 c0.1-0.1,0-0.2,0-0.2c0,0.1,0,0.1-0.1,0.1C22.1,75.9,22.1,75.9,22.1,75.9z M22.1,76.3L22.1,76.3L22.1,76.3z M22.2,76.5 C22.2,76.5,22.2,76.5,22.2,76.5C22.2,76.5,22.2,76.5,22.2,76.5C22.2,76.5,22.2,76.5,22.2,76.5L22.2,76.5 C22.2,76.6,22.2,76.6,22.2,76.5C22.2,76.5,22.2,76.5,22.2,76.5z M22.2,75.6L22.2,75.6C22.2,75.7,22.2,75.7,22.2,75.6 C22.2,75.7,22.2,75.7,22.2,75.6L22.2,75.6C22.2,75.6,22.2,75.6,22.2,75.6z M22.2,76L22.2,76L22.2,76z M22.2,76.1 C22.2,76.1,22.2,76.1,22.2,76.1L22.2,76.1C22.2,76.1,22.2,76.1,22.2,76.1C22.2,76.1,22.2,76.1,22.2,76.1z M22.3,75.8 C22.3,75.8,22.3,75.8,22.3,75.8C22.3,75.8,22.3,75.8,22.3,75.8L22.3,75.8z M22.4,75.7C22.4,75.7,22.4,75.7,22.4,75.7L22.4,75.7 C22.4,75.7,22.4,75.7,22.4,75.7z M22.4,75.4L22.4,75.4L22.4,75.4z M22.5,75.7C22.5,75.7,22.5,75.6,22.5,75.7L22.5,75.7 C22.5,75.7,22.5,75.7,22.5,75.7L22.5,75.7z M22.5,76.7C22.5,76.7,22.5,76.7,22.5,76.7C22.5,76.6,22.5,76.6,22.5,76.7 C22.5,76.6,22.5,76.6,22.5,76.7L22.5,76.7C22.5,76.7,22.5,76.7,22.5,76.7z M22.8,75.5C22.8,75.5,22.8,75.5,22.8,75.5 C22.8,75.5,22.8,75.5,22.8,75.5z M22.8,76.5C22.8,76.5,22.8,76.5,22.8,76.5C22.8,76.5,22.8,76.5,22.8,76.5 C22.8,76.5,22.8,76.5,22.8,76.5C22.8,76.6,22.8,76.5,22.8,76.5z M22.8,75.5L22.8,75.5C22.8,75.5,22.8,75.5,22.8,75.5 C22.8,75.5,22.8,75.5,22.8,75.5C22.8,75.5,22.8,75.5,22.8,75.5z M22.8,76.5C22.8,76.5,22.8,76.5,22.8,76.5 C22.8,76.5,22.8,76.5,22.8,76.5C22.8,76.5,22.8,76.5,22.8,76.5L22.8,76.5z M22.8,76.1C22.8,76.1,22.8,76.1,22.8,76.1 C22.8,76.1,22.8,76.1,22.8,76.1z M22.8,76.6C22.8,76.6,22.8,76.6,22.8,76.6C22.8,76.7,22.8,76.7,22.8,76.6 C22.8,76.7,22.8,76.6,22.8,76.6S22.9,76.6,22.8,76.6C22.9,76.6,22.8,76.6,22.8,76.6z M22.9,76.4L22.9,76.4L22.9,76.4z M22.9,76.7 C23,76.7,23,76.7,22.9,76.7C23,76.7,23,76.7,22.9,76.7C23,76.7,23,76.7,22.9,76.7C22.9,76.7,22.9,76.6,22.9,76.7 C22.9,76.6,22.9,76.7,22.9,76.7C22.9,76.7,22.9,76.7,22.9,76.7C23,76.7,23,76.7,22.9,76.7C23,76.7,23,76.7,22.9,76.7z M23,75.4 C23,75.4,23,75.4,23,75.4C23,75.4,23,75.4,23,75.4C23,75.4,23,75.4,23,75.4C23,75.4,23,75.4,23,75.4z M23.1,75.7 C23.1,75.7,23.1,75.7,23.1,75.7C23.1,75.6,23,75.7,23.1,75.7C23,75.7,23,75.7,23.1,75.7C23.1,75.7,23.1,75.7,23.1,75.7z M23.1,75.9 C23.1,75.9,23.1,75.9,23.1,75.9L23.1,75.9C23.1,75.9,23.1,75.9,23.1,75.9z M23.1,76C23.1,76,23.1,76,23.1,76 C23.1,76,23.1,76,23.1,76L23.1,76z M23.1,76.9L23.1,76.9C23.1,76.9,23.1,76.9,23.1,76.9C23.1,76.9,23.1,76.9,23.1,76.9z M23.2,75.8 C23.2,75.8,23.2,75.8,23.2,75.8C23.2,75.8,23.2,75.7,23.2,75.8C23.2,75.7,23.2,75.7,23.2,75.8C23.2,75.8,23.2,75.8,23.2,75.8z M23.3,76.1C23.3,76.1,23.3,76.1,23.3,76.1C23.3,76.1,23.3,76.1,23.3,76.1L23.3,76.1z M23.3,75.6C23.3,75.6,23.3,75.6,23.3,75.6 C23.3,75.6,23.3,75.7,23.3,75.6C23.3,75.7,23.3,75.7,23.3,75.6C23.3,75.6,23.3,75.6,23.3,75.6z M23.3,77C23.3,77,23.3,77,23.3,77 L23.3,77z M23.4,76.6C23.4,76.6,23.4,76.6,23.4,76.6C23.4,76.6,23.4,76.6,23.4,76.6C23.4,76.6,23.4,76.6,23.4,76.6 C23.4,76.6,23.4,76.6,23.4,76.6z M23.4,77C23.4,77,23.4,77,23.4,77C23.4,77,23.4,77,23.4,77C23.4,77,23.4,77,23.4,77z M23.4,75.5 C23.4,75.5,23.4,75.5,23.4,75.5C23.4,75.5,23.4,75.5,23.4,75.5z M23.4,75.8C23.4,75.8,23.4,75.8,23.4,75.8L23.4,75.8 C23.4,75.8,23.4,75.8,23.4,75.8C23.4,75.8,23.4,75.8,23.4,75.8z M23.4,76.3C23.4,76.2,23.4,76.2,23.4,76.3 C23.4,76.2,23.4,76.2,23.4,76.3C23.4,76.3,23.4,76.3,23.4,76.3C23.4,76.3,23.4,76.3,23.4,76.3z M23.5,75.8 C23.5,75.8,23.4,75.8,23.5,75.8L23.5,75.8C23.5,75.9,23.5,75.9,23.5,75.8z M23.4,76L23.4,76C23.4,76,23.4,76,23.4,76z M23.5,76.3 C23.5,76.3,23.5,76.3,23.5,76.3C23.5,76.3,23.5,76.3,23.5,76.3z M23.5,75.6C23.5,75.6,23.5,75.6,23.5,75.6 C23.5,75.6,23.5,75.6,23.5,75.6C23.5,75.6,23.5,75.6,23.5,75.6C23.5,75.6,23.5,75.6,23.5,75.6z M23.6,76.4L23.6,76.4L23.6,76.4z M23.6,76L23.6,76C23.6,76,23.6,76,23.6,76C23.6,76,23.6,76,23.6,76C23.6,76,23.6,76,23.6,76z M23.6,76.5L23.6,76.5L23.6,76.5z M23.8,76.3C23.8,76.3,23.8,76.3,23.8,76.3C23.7,76.4,23.7,76.4,23.8,76.3C23.7,76.4,23.7,76.4,23.8,76.3c0,0.1,0,0.1,0,0.1 C23.8,76.4,23.8,76.4,23.8,76.3C23.8,76.3,23.8,76.3,23.8,76.3z M23.8,75.9C23.8,75.8,23.8,75.8,23.8,75.9L23.8,75.9 C23.7,75.9,23.8,75.9,23.8,75.9L23.8,75.9z M23.7,76.1C23.7,76.2,23.7,76.1,23.7,76.1C23.7,76.1,23.7,76.1,23.7,76.1 C23.7,76.1,23.7,76.1,23.7,76.1z"></path> <path class="st1" d="M31.9,82.3C31.9,82.3,31.8,82.3,31.9,82.3c-0.1,0.1-0.2,0.2-0.3,0.2c-0.3,0.1-0.5,0.2-0.8,0.3 c-0.3,0.1-0.6,0.2-1,0.2c-0.2,0-0.4,0.1-0.6,0.1c-0.1,0-0.2,0-0.3-0.1c-0.1-0.1-0.2,0-0.3,0c0,0-0.1,0-0.1,0c-0.2,0-0.4,0-0.6,0 c-0.2,0-0.4,0-0.5,0c-0.1,0-0.2,0-0.3,0c0,0,0,0,0,0c-0.1,0-0.2,0-0.3,0c-0.2-0.1-0.4-0.2-0.6-0.2c-0.3-0.1-0.6-0.3-0.9-0.5 c-0.3-0.2-0.6-0.7-0.4-1c0,0,0-0.1,0-0.2c0-0.1,0-0.1,0-0.2c0-0.2,0-0.4,0-0.7c0-0.4,0-0.8,0-1.2c0-0.1,0-0.3,0-0.4 c0-0.1,0-0.2,0-0.3c0-0.2,0-0.5,0-0.7c0-0.3,0-0.7,0-1.1c0-0.2-0.1-0.5-0.1-0.7c0-0.3,0-0.6,0-1c0-0.3,0-0.6,0-0.9s0-0.6,0.1-0.9 c0-0.2,0-0.4,0-0.6c0-0.3,0.1-0.6,0.1-0.9c0-0.2,0-0.4,0-0.6c0-0.3,0-0.6,0-0.8c0-0.4,0-0.7,0-1.1c0-0.2,0-0.4,0.2-0.6 c0.1-0.1,0.3-0.2,0.4-0.1c0,0,0.1,0,0.1,0c0,0.1,0.1,0.3,0.2,0.5c0.1,0.2,0,0.4,0.1,0.6c0,0.1,0.1,0.3,0.1,0.4c0,0.1,0,0.2,0,0.3 c0,0.1,0,0.3,0,0.4c0,0.2,0,0.3,0,0.5c0,0.2,0,0.3,0,0.5c0,0.2,0,0.4,0,0.6c0,0.2,0,0.4,0,0.6c0,0.1,0,0.2,0,0.3c0,0.2,0,0.4,0,0.6 c0,0.3,0,0.6,0,0.9c0,0.3,0,0.5,0,0.8c0,0.4-0.1,0.8-0.1,1.1c0,0.2,0,0.3,0,0.5c0,0.2,0,0.5,0,0.7c0,0.1,0,0.2,0,0.3 c0,0.1,0,0.1,0,0.2c0.2,0.1,0.1,0.3,0.1,0.4c0,0.3,0,0.5,0,0.7c0,0.1,0,0.3,0,0.4c0,0,0,0.1,0,0.1c0.1,0.2,0.1,0.5,0.2,0.7 c0,0.2,0.2,0.3,0.2,0.5c0,0.1,0.1,0.1,0.2,0.3c0,0.1,0.2,0.2,0.3,0.2c0.2,0,0.3,0.1,0.5,0.1c0.4,0,0.8,0,1.2,0c0.2,0,0.3,0,0.4,0 c0.2,0,0.3,0,0.5,0c0.2,0,0.3,0,0.4,0c0,0,0.1,0,0.1,0c0.3-0.1,0.6-0.1,0.8,0c0.2,0,0.4,0.2,0.4,0.4C31.8,82.2,31.9,82.3,31.9,82.3 z M26.2,81.5c-0.1-0.1-0.1-0.1-0.2-0.2c0,0.1,0,0.1,0,0.2C26.1,81.5,26.1,81.6,26.2,81.5C26.2,81.6,26.2,81.5,26.2,81.5z"></path> <path class="st1" d="M33.3,73C33.3,73,33.3,73,33.3,73c0-0.1-0.1-0.1-0.2-0.1c0,0,0.1,0,0.1,0c0,0,0,0,0.1-0.1c0,0-0.1,0-0.1-0.1 c0,0.1,0,0.1,0,0.1c0,0-0.1,0-0.1,0c0.3-1.8,0.6-3.5,1.1-5.3c0.1,0,0.2-0.1,0.2-0.2c0-0.1,0.1-0.2,0.2-0.2c0.1,0,0.2,0.1,0.2,0.2 c0.1,0.1,0.1,0.2,0.2,0.3c0.1,0.1,0.2,0.2,0.3,0.3c0,0,0,0,0,0c0.1,0.2,0.2,0.5,0.3,0.7c0.1,0.2,0.1,0.4,0.2,0.6 c0.1,0.3,0.2,0.6,0.3,0.9c0,0.1,0,0.1,0.1,0.2c0.1,0.3,0.1,0.6,0.2,0.9c0.1,0.3,0.1,0.5,0.2,0.7c0.1,0.3,0.1,0.6,0.2,0.9 c0,0.2,0.1,0.4,0.1,0.6c0,0.2,0.1,0.3,0.1,0.5s0.1,0.4,0.1,0.6c0,0.2,0.1,0.4,0.1,0.6c0,0.3,0.1,0.5,0.1,0.8c0,0.3,0,0.5,0.1,0.8 s0.1,0.5,0.2,0.8c0,0.3,0.1,0.5,0.2,0.8c0,0.1,0.1,0.2,0.1,0.3c0,0.2,0,0.4,0.1,0.6c0,0,0,0.1,0.1,0.2c0,0.2,0.1,0.4,0.1,0.6 c0,0.2,0,0.4,0.1,0.6c0,0.1,0,0.3,0.1,0.4c0,0.3,0,0.6,0.1,1c0.1,0.3,0,0.7,0,1c0,0,0,0.1-0.1,0.1c0,0.1,0,0.2,0,0.3 c0,0.1-0.1,0.1-0.2,0.1c-0.3,0-0.5-0.2-0.6-0.5c-0.1-0.2-0.2-0.4-0.3-0.6c-0.1-0.3-0.2-0.6-0.3-1c-0.1-0.3-0.2-0.6-0.2-1 c-0.1-0.6-0.2-1.2-0.3-1.8c0-0.2,0-0.3-0.1-0.5c0,0-0.1-0.1-0.1-0.2c0,0,0,0,0,0c0,0,0,0,0-0.1c0,0-0.1,0-0.1,0c0,0,0,0.1,0,0.1 c-0.1,0-0.2,0.1-0.3,0.1c0,0-0.1,0-0.1-0.1c0,0,0,0.1,0,0.1c-0.3,0-0.6,0-0.9,0.1c-0.2,0.2-0.3,0.1-0.5,0.1 c-0.2,0.1-0.2,0.2-0.3,0.4c-0.1,0.3,0,0.6-0.1,0.9c0,0.2-0.1,0.5-0.2,0.7c0,0,0,0,0,0.1c0,0.1,0,0.1,0,0.2c0,0.3-0.1,0.6-0.1,0.9 c0,0.1,0,0.3,0,0.4c0,0.2,0,0.4,0,0.6c0,0.2,0,0.5-0.1,0.7c0,0,0,0.1,0,0.2c0,0,0,0,0,0c0,0.2-0.2,0.3-0.4,0.3c0,0-0.1,0-0.2-0.1 c-0.1-0.1-0.1-0.1-0.3-0.1c-0.2-0.1-0.3-0.1-0.4-0.3c-0.1-0.1-0.1-0.2-0.1-0.3c0-0.1,0-0.3,0-0.4c0-0.2,0-0.3,0-0.5 c0-0.4,0.1-0.9,0.1-1.3c0-0.2,0.1-0.4,0.1-0.6c0-0.3,0.1-0.6,0.1-0.9c0-0.1,0-0.3,0.1-0.4c0.1-0.3,0.1-0.6,0.2-0.9 c0-0.3,0.1-0.7,0.1-1c0-0.3,0-0.6,0-0.8c0-0.2,0.1-0.3,0.1-0.5c0,0,0,0,0,0c0-0.2,0-0.4,0.1-0.7c0-0.1,0-0.3,0-0.4 c0-0.2,0.1-0.4,0.1-0.6c0-0.1,0.1-0.2,0.1-0.3C33.2,73,33.3,73,33.3,73z M33.2,73.3c0,0,0.1-0.1,0.1-0.2c-0.1,0-0.1,0-0.2,0 C33.2,73.2,33.2,73.2,33.2,73.3z M34.9,70.1C34.9,70.2,34.9,70.2,34.9,70.1c-0.1,0.2-0.1,0.4-0.1,0.5c0,0.2,0,0.4,0,0.6 c0,0.1,0,0.2,0,0.3c0,0.2-0.1,0.4-0.1,0.6c0,0.2,0,0.5,0,0.7c0,0.3-0.1,0.6-0.1,1v0c0,0.2-0.1,0.4-0.1,0.5c0,0.2,0,0.3,0,0.4 c0,0.1,0,0.2,0,0.3c0,0.2,0,0.4,0,0.5c0,0.3,0,0.4-0.1,0.6c0,0.1-0.1,0.3-0.1,0.4c0,0,0,0.1,0.1,0.1c0.3-0.1,0.5-0.1,0.8-0.2 c0.1,0,0.2,0,0.3,0c0.2,0,0.4-0.1,0.6-0.1v0c0,0,0,0,0.1,0.1c0-0.1,0-0.2,0-0.3c0-0.2-0.1-0.5-0.1-0.7c0-0.3-0.1-0.6-0.1-1 c0-0.2,0-0.4-0.1-0.6c-0.1-0.5-0.2-1-0.2-1.4c0-0.3-0.1-0.6-0.1-0.9c-0.1-0.3-0.1-0.7-0.2-1C35,70.4,35,70.3,34.9,70.1 C35,70.2,34.9,70.2,34.9,70.1z M35.6,77.8c0.1,0,0.1,0,0.2,0c0-0.1,0-0.1,0-0.2C35.7,77.7,35.7,77.7,35.6,77.8z M35.8,77.1 c0,0-0.1,0-0.2,0c0,0,0,0,0,0.1C35.7,77.2,35.8,77.2,35.8,77.1c0.1,0,0.1,0,0.1,0C35.9,77.1,35.8,77.1,35.8,77.1z"></path> <path class="st1" d="M39.8,67.1c0.2,0,0.3,0,0.5,0.1c0.1,0.1,0.3,0.1,0.4,0.2c0.3,0.2,0.4,0.5,0.5,0.9c0,0.1,0.1,0.3,0.1,0.4 c0,0,0,0.1,0,0.1c0,0.2,0,0.4,0.1,0.6c0.1,0.2,0.2,0.5,0.2,0.7c0,0.3,0.2,0.7,0.2,1.1c0,0.2,0.1,0.5,0.2,0.7c0,0.2,0.1,0.3,0.1,0.5 c0.1,0.3,0.2,0.5,0.3,0.8c0.1,0.2,0.2,0.5,0.2,0.7c0,0.2,0.1,0.5,0.2,0.7c0,0.1,0.1,0.2,0.1,0.3c0.1,0.3,0.1,0.5,0.2,0.8 c0,0.2,0.1,0.4,0.2,0.6c0.2,0.6,0.4,1.1,0.5,1.7c0,0,0,0,0.1,0.1c0-0.1,0-0.2,0-0.3c-0.1-0.4,0-0.8,0-1.2c0-0.5,0.1-0.9,0.1-1.4 c0-0.3,0-0.5,0.1-0.7c0-0.4,0-0.8,0-1.1c0-0.5,0-1,0-1.5c0-0.7,0-1.4,0-2.1c0-0.8,0-1.5,0-2.3c0-0.1,0-0.2,0-0.3c0,0,0-0.1,0.1-0.2 c0.2,0,0.4,0.1,0.6,0.3c0.1,0.1,0.2,0.3,0.3,0.4c0,0,0,0,0,0c0,0.3,0.1,0.6,0.1,0.9c0,0.2,0,0.3,0.1,0.5c0,0.3,0,0.6,0,0.9 c0,0.3,0,0.6,0,0.9c0,0.2,0,0.4,0,0.5c0,0.2,0,0.5,0,0.7c0,0.1,0,0.2,0,0.3c0,0.1,0,0.1,0,0.2c0,0.4,0,0.8,0,1.1c0,0.3,0,0.6,0,0.9 c0,0.1,0,0.1,0,0.2c0,0-0.1,0-0.1,0.1c0.1,0.1,0.1,0.2,0.1,0.4c0,0.3,0,0.5,0,0.8c0,0.5,0,0.9,0,1.4c0,0.3,0,0.5,0,0.7 c0,0.1,0,0.3,0,0.4c0,0.4,0,0.7,0,1.1c0,0.2,0,0.3,0,0.5c0,0.2,0.1,0.5,0.1,0.7c0,0.3,0,0.7,0,1c0,0.1,0,0.1,0,0.2 c0,0.2,0,0.3-0.1,0.5s0,0.4-0.1,0.5c-0.2,0.1-0.3,0.1-0.4,0.2c0,0-0.1,0-0.2,0c-0.2-0.1-0.4-0.2-0.4-0.4c0,0,0,0,0-0.1 c-0.1-0.1-0.2-0.2-0.3-0.4c-0.1-0.3-0.3-0.5-0.4-0.7c-0.1-0.1-0.1-0.3-0.2-0.5c-0.1-0.3-0.3-0.6-0.4-1c-0.1-0.4-0.3-0.9-0.4-1.3 c-0.2-0.7-0.4-1.4-0.6-2.1c-0.2-0.6-0.4-1.2-0.6-1.8c-0.1-0.3-0.1-0.6-0.2-0.9c0-0.2-0.1-0.5-0.2-0.7C41,72.6,41,72,40.8,71.5 c0-0.1-0.1-0.3-0.1-0.4c0,0,0,0-0.1,0c0,0.1,0,0.3,0,0.4c0,0.2,0,0.5,0,0.7c0,0.3,0.1,0.6,0.1,1c0,0.4,0,0.8,0,1.2 c0,0.4,0,0.9,0,1.3c0,0.1,0,0.3,0,0.4c0,0.1,0,0.3,0,0.4c0,0.5,0,0.9,0,1.3c0,0.3,0,0.5,0,0.8c0,0.2,0,0.3,0,0.5c0,0.3,0,0.6,0,0.9 c0,0.3,0,0.6,0,1c0,0.4,0,0.7,0,1.1c0,0,0.1,0.1,0.1,0.1c0,0,0,0-0.1,0.1c0,0.1,0,0.3,0,0.4c0,0.2-0.2,0.4-0.4,0.4 c-0.3,0-0.5-0.1-0.7-0.3c-0.1-0.2-0.2-0.4-0.2-0.6c0-0.6-0.1-1.1,0-1.7c0-0.2,0-0.4,0-0.6c0-0.3,0-0.6,0-1c0-0.2,0-0.5,0-0.7 c0-0.3,0-0.6,0-0.9c0-0.4,0-0.7,0-1.1c0-0.3,0-0.7,0-1.1c0-0.5,0-0.9,0-1.4c0-0.3,0-0.7,0-1c0-0.4-0.1-0.9-0.1-1.3 c0-0.5,0-1.1,0-1.6c0-0.6,0-1.2-0.1-1.8c0-0.2,0-0.4,0-0.6c0-0.1,0-0.1,0.1-0.2C39.5,67,39.6,67,39.8,67.1z M39.7,82.1 C39.7,82.1,39.7,82.1,39.7,82.1c0,0.1,0,0.2,0.2,0.2C39.8,82.2,39.7,82.1,39.7,82.1z M40.2,72.7c0,0.1,0,0.2,0,0.3 c-0.1,0.1,0,0.2,0,0.3c0,0,0,0,0,0c0-0.1,0-0.2,0-0.3C40.2,72.9,40.2,72.8,40.2,72.7z M40.4,70.6c0,0.1,0,0.1,0,0.1 c0.1,0,0.1,0,0.2,0C40.5,70.7,40.4,70.7,40.4,70.6z M40.4,75.6c0,0,0-0.1,0-0.1c0,0,0,0,0,0C40.4,75.5,40.4,75.5,40.4,75.6 C40.4,75.6,40.4,75.6,40.4,75.6z M40.5,71.2c-0.1,0-0.1,0.1-0.1,0.2C40.4,71.3,40.4,71.3,40.5,71.2C40.5,71.2,40.5,71.2,40.5,71.2z M40.5,73.3c-0.1,0-0.1,0-0.1,0.1C40.5,73.4,40.5,73.3,40.5,73.3z"></path> </g> <g class="st0"> <path class="st2" d="M53.3,66.9c0.3,0,0.9,0.4,1.1,0.8c0,0,0.1,0,0.1,0c0.4-0.1,0.8-0.2,1.2-0.3c0.1,0,0.3,0,0.4-0.1 c0.1,0,0.1,0,0.2,0c0.3,0,0.6,0.1,1,0.1c0,0.1,0,0.1,0,0.1c0,0,0,0,0.1-0.1c0.1,0,0.2,0.1,0.3,0.2c0.2,0.1,0.3,0.2,0.5,0.3 c0.1,0.1,0.3,0.2,0.4,0.3c0.2,0.2,0.3,0.5,0.5,0.7c0.1,0.1,0.1,0.3,0.1,0.5c0,0.3,0,0.6,0.1,0.9c0,0.3,0,0.6,0,0.8 c0,0.2-0.1,0.4-0.1,0.6c-0.1,0.3-0.2,0.5-0.3,0.8c-0.1,0.2-0.2,0.4-0.2,0.6c-0.1,0.1-0.1,0.3-0.2,0.4c-0.1,0.2-0.3,0.3-0.4,0.5 s-0.3,0.3-0.5,0.3c-0.2,0.1-0.5,0.2-0.7,0.3c-0.3,0.1-0.6,0.2-0.9,0.2c-0.1,0-0.2,0-0.3,0c-0.2,0-0.5,0-0.6,0.1c0,0.1,0,0.2,0,0.2 c0,0.2,0,0.3,0,0.5c0,0.2,0,0.3,0,0.4c0,0.1,0,0.2,0,0.3c0,0.2,0,0.4,0,0.6c0,0.2,0,0.4,0,0.6c0,0.3-0.1,0.7-0.1,1 c0,0.2,0,0.4,0,0.7c0,0.6-0.1,1.1-0.1,1.7c0,0.1,0,0.3,0,0.4c0,0.2,0,0.4,0,0.6c0,0.1,0,0.2,0,0.3c0,0.1,0,0.1,0,0.2 c-0.1,0-0.3,0-0.4,0.1c0,0,0,0.1,0.1,0.2c-0.1,0.1-0.3,0.1-0.3,0c-0.2-0.1-0.4-0.3-0.6-0.5c0,0-0.1-0.2-0.1-0.2c0-0.4,0-0.9,0-1.3 c0-0.4,0-0.8,0-1.2c0-0.3,0-0.6,0-0.9c0-0.4,0-0.7,0-1.1c0-0.3,0-0.5,0-0.8c0-0.5,0-0.9,0-1.3c0-0.3,0-0.7,0-1c0-0.6,0-1.1,0-1.6 c0-0.4,0-0.9,0-1.3c0-0.4,0-0.7,0-1.1c0-0.4,0-0.9,0-1.3c0-0.4,0-0.8,0-1.2c0-0.3,0-0.7,0-1c0,0,0,0,0.1,0 C53.3,67,53.3,67,53.3,66.9z M53.7,69.1c0-0.1,0-0.1,0-0.3c-0.1,0-0.1,0.1-0.1,0.1C53.6,69,53.6,69,53.7,69.1 C53.6,69.1,53.6,69.1,53.7,69.1z M55,73.7c0,0.1,0,0.2,0.1,0.2c0.1,0,0.2,0,0.3-0.1c0.4,0,0.8-0.2,1.1-0.5c0.3-0.3,0.6-0.6,0.8-1 c0.2-0.3,0.3-0.5,0.4-0.8c0.3-0.6,0.3-1.3,0.3-2c-0.1-0.5-0.2-0.9-0.6-1.2c-0.2-0.2-0.4-0.3-0.7-0.2c-0.2,0-0.5,0-0.7,0 c-0.1,0-0.2,0-0.3,0c-0.2,0-0.3,0.1-0.5,0.2c-0.1,0.1-0.3,0.1-0.3,0.3c0,0.1,0,0.2,0,0.3c0,0.1,0,0.1,0,0.2c0,0.1,0,0.3,0,0.4 c0,0.2,0,0.4,0,0.6c0,0.3,0,0.6,0,0.9c0,0,0,0.1,0,0.2c0,0.1,0,0.2,0,0.4c0,0.3,0.1,0.7,0.1,1c0,0.3,0,0.6-0.1,0.9 C55,73.5,55,73.5,55,73.7C55,73.6,55,73.7,55,73.7z"></path> <path class="st2" d="M67.7,76.6c-0.1,0.7-0.2,1.5-0.3,2.2c-0.1,0.6-0.2,1.1-0.5,1.7c-0.2,0.4-0.3,0.8-0.5,1.1 c-0.1,0.3-0.3,0.5-0.5,0.6c-0.1,0.1-0.2,0.2-0.4,0.3c-0.2,0.2-0.5,0.3-0.8,0.4c-0.3,0-0.6,0-1,0c-0.4-0.1-0.8-0.2-1.1-0.5 c-0.2-0.1-0.4-0.3-0.5-0.4c-0.2-0.3-0.4-0.6-0.6-0.9c-0.1-0.2-0.2-0.4-0.3-0.6c0,0,0,0,0,0c-0.1-0.4-0.3-0.8-0.4-1.2 c0-0.1-0.1-0.2-0.1-0.3c-0.1-0.2-0.2-0.5-0.3-0.8c0-0.1-0.1-0.2-0.1-0.3c-0.1-0.3-0.2-0.6-0.3-0.9c0,0,0-0.1-0.1-0.2c0,0,0,0,0.1,0 c0-0.3-0.2-0.5-0.1-0.8c0,0,0,0,0-0.1c0,0,0.1,0,0.1,0c-0.1,0-0.1,0-0.2-0.1c0-0.4,0-0.8,0-1.2c0-0.2-0.2-0.3,0-0.6c0,0,0,0,0,0 c0,0,0,0,0,0l0,0c0,0,0.1,0,0.1,0c0,0-0.1-0.1-0.1-0.1c0,0,0-0.1,0-0.1c0,0,0,0-0.1,0c0,0,0-0.1,0-0.2c0,0,0.1,0,0.1,0 c0,0,0,0.1,0,0.1c0.1,0,0.1,0,0.2,0c0,0,0-0.1-0.1-0.1c0,0,0-0.1,0.1-0.1c0-0.1,0-0.2,0.2-0.3c0,0,0-0.1,0-0.1c0,0,0,0,0,0 c0-0.1,0-0.3,0-0.4c-0.1,0-0.2,0-0.3-0.1c0,0,0,0,0,0c0,0.1,0.1,0.1,0.1,0.2c-0.1,0-0.1,0-0.1,0c-0.2-0.1-0.1-0.3,0-0.4 c0-0.2,0-0.4,0.1-0.5c0-0.1,0.1-0.3,0.1-0.4c0-0.1,0-0.3,0.1-0.4c0.1-0.3,0.1-0.5,0.2-0.8c0-0.1,0.1-0.3,0.2-0.4 c0.1-0.2,0.2-0.4,0.3-0.6c0.1-0.2,0.3-0.4,0.4-0.5c0.1-0.1,0.2-0.3,0.4-0.4c0.2-0.1,0.4-0.2,0.6-0.1c0.2,0,0.3,0,0.5,0 c0.4,0,0.8-0.1,1.2,0c0.4,0.1,0.9,0.2,1.3,0.5c0.7,0.4,1.1,1,1.4,1.8c0.2,0.6,0.3,1.2,0.5,1.7c0.1,0.4,0.2,0.9,0.2,1.3 c0.1,0.5,0.1,1,0.1,1.5C67.8,75.7,67.8,76.1,67.7,76.6z M60,73.6c0-0.2,0-0.3,0.1-0.4c0,0,0,0,0,0.1c0,0,0,0,0.1,0c0,0,0,0.1,0,0.2 C60.1,73.5,60.1,73.5,60,73.6z M60.2,73.2c-0.1,0-0.1,0-0.2,0c0,0,0-0.1,0-0.1c0,0,0.1,0,0.1,0C60.2,73.1,60.2,73.2,60.2,73.2z M60.1,73.2C60.1,73.2,60.1,73.2,60.1,73.2L60.1,73.2z M60.4,72.6c-0.1,0-0.1,0.1-0.2,0.1c0,0,0,0,0,0 C60.2,72.7,60.3,72.7,60.4,72.6c-0.1,0.1,0,0.1,0,0.1C60.4,72.7,60.4,72.6,60.4,72.6z M66.3,75.1c0-0.2,0-0.5,0-0.7 c-0.1-0.1-0.1-0.4-0.1-0.6c0-0.2,0-0.3,0-0.5c0-0.1,0-0.2,0-0.2c0-0.1,0-0.2,0-0.3c0-0.4-0.1-0.7-0.2-1c-0.1-0.2-0.2-0.4-0.3-0.6 c-0.1-0.3-0.2-0.6-0.3-0.9c0,0,0-0.1-0.1-0.1l0,0c-0.1-0.2-0.3-0.4-0.4-0.5c-0.2-0.3-0.6-0.6-1-0.6c0,0-0.1,0-0.1,0 c-0.2,0.2-0.4,0.4-0.5,0.7c-0.3,0.4-0.4,0.9-0.4,1.3c-0.1,0.6-0.2,1.1-0.4,1.7c-0.2,0.8-0.3,1.5-0.2,2.3c0,0.2,0,0.4,0,0.7 c0,0.3,0,0.6,0,0.9c0.1,0.4,0.1,0.8,0.3,1.2c0.1,0.5,0.3,0.9,0.4,1.4c0.1,0.4,0.2,0.7,0.5,1c0.2,0.3,0.5,0.6,0.7,0.9 c0.1,0.1,0.1,0.2,0.3,0.1c0,0.1,0,0.1,0,0.2c0.1,0,0.1,0,0.2,0c0.2-0.1,0.3-0.3,0.5-0.5c0,0,0.1-0.1,0.2-0.2c0,0,0,0,0,0 c0-0.1,0-0.2,0.1-0.4c0.3-0.2,0.3-0.7,0.5-1c0,0,0-0.1,0.1-0.2c0-0.2,0.1-0.3,0.2-0.6c0,0,0,0,0,0c0-0.2,0-0.4,0-0.6 c0-0.1,0-0.3,0-0.4c0-0.3,0-0.5,0-0.7c0-0.1,0-0.3,0-0.4c0-0.3,0-0.6,0.1-0.8c0-0.1,0.1-0.2,0.1-0.3C66.3,75.3,66.3,75.2,66.3,75.1 L66.3,75.1z M66.5,74.1c0-0.1,0-0.3,0-0.4h0c0,0,0,0.1,0,0.1c0,0.1-0.1,0.2-0.1,0.3C66.4,74.1,66.4,74.1,66.5,74.1 C66.5,74.1,66.5,74.1,66.5,74.1z"></path> <path class="st2" d="M75.9,82.3c0.1,0.1,0.1,0.2,0.2,0.3c-0.2,0.1-0.4,0.3-0.7,0.2c-0.1,0-0.3-0.1-0.4,0c-0.3,0-0.4-0.1-0.6-0.3 c-0.2-0.2-0.4-0.5-0.6-0.7c-0.1-0.1-0.2-0.2-0.3-0.3c0-0.1-0.1-0.2-0.1-0.2c-0.1-0.1-0.2-0.3-0.2-0.4c-0.1-0.2-0.2-0.3-0.3-0.5 c-0.3-0.5-0.6-0.9-0.9-1.4c-0.2-0.4-0.5-0.8-0.7-1.2c-0.1-0.2-0.3-0.5-0.4-0.7c0,0-0.1,0-0.2-0.1c0,0.1,0,0.1,0,0.2c0,0,0,0,0,0 c0,0.1,0,0.1,0,0.2c0,0,0,0,0.1,0.1c0,0,0,0.1,0,0.2l0,0c0,0.3,0,0.6,0,0.8c0,0.3,0,0.6,0,0.9c0,0.1,0,0.3,0,0.4c0,0.3,0,0.5,0,0.8 c0,0.2,0,0.3,0,0.5c0,0.3,0,0.5,0,0.7c0,0.1,0,0.3-0.1,0.4c-0.1,0.3-0.1,0.6-0.2,1c0,0.2-0.2,0.3-0.4,0.3c-0.1,0-0.1,0-0.2,0.1 c-0.2,0-0.5-0.3-0.6-0.5c0-0.2-0.1-0.4-0.2-0.6c0-0.2-0.1-0.4-0.1-0.6c0-0.1,0-0.1,0-0.2c0-0.3,0-0.6,0-0.9c0-0.3,0-0.7,0-1 c0-0.4,0-0.8,0-1.2c0-0.3,0-0.5,0-0.7c0-0.3,0-0.7,0-1c0-0.2,0-0.4,0-0.6s0-0.3,0-0.5c0-0.2,0-0.5,0-0.7c0-0.2,0-0.4,0-0.6 c0-0.3-0.1-0.5-0.1-0.7c0-0.3,0-0.6,0-0.9c0-0.2,0-0.4,0-0.6c0-0.3,0-0.6,0-0.9c0-0.4,0-0.8,0-1.2c0-0.4,0-0.8,0-1.2 c0-0.2,0-0.4,0-0.6c0-0.2,0-0.4,0-0.6c0-0.1,0.1-0.1,0.2-0.1c0.4,0,0.7,0.1,1,0.5c0,0,0,0.1,0,0.2c0,0.1,0,0.2,0,0.3 c0,0.1,0,0.1,0,0.2c0,0.2,0,0.3,0,0.4c0,0.2,0.1,0.4,0.1,0.6c0,0.2,0,0.3,0,0.5c0,0.1,0,0.2,0,0.3c0.1,0.2,0.1,0.4,0.1,0.6 c0,0.1,0,0.2,0,0.2c0,0.3,0,0.5,0,0.7c0,0-0.1,0.1-0.1,0.1c0,0,0.1,0,0.1,0c0,0.1,0,0.3,0,0.4c0,0,0,0.1,0,0.1 c0.1,0.1,0.1,0.2,0,0.2c0,0.4,0,0.8,0,1.2c0,0.1,0,0.1,0,0.2c0,0,0,0,0,0.1c0,0.1,0,0.2-0.1,0.3v0c0,0,0,0,0-0.1c0,0.1,0,0.2,0,0.3 c0,0,0,0.1,0,0.2c0,0,0,0,0,0c0-0.1,0.1-0.2,0.1-0.2c0.1-0.3,0.3-0.5,0.3-0.7c0.1-0.3,0.3-0.6,0.4-0.8c0,0,0.1-0.1,0.1-0.1 c0,0,0.1-0.1,0.1-0.2c0-0.2,0.2-0.4,0.3-0.6c0-0.1,0.1-0.3,0.2-0.4c0.1-0.2,0.2-0.4,0.3-0.6c0.2-0.4,0.4-0.8,0.6-1.3 c0.3-0.5,0.5-1,0.7-1.5c0.1-0.3,0.3-0.6,0.4-0.8c0-0.1,0.1-0.1,0.1-0.2c0.1-0.1,0.2-0.1,0.3,0c0.2,0.1,0.5,0.2,0.7,0.4 c0.1,0.1,0.2,0.2,0.2,0.4c0,0,0,0.1,0,0.1c-0.1,0.1-0.2,0.3-0.3,0.4C75,68.8,75,69,74.9,69.2c0,0-0.1,0.1-0.1,0.2 c-0.1,0.2-0.2,0.4-0.3,0.7c0,0.1-0.1,0.2-0.2,0.3c-0.1,0.2-0.2,0.3-0.3,0.5c-0.1,0.2-0.2,0.3-0.3,0.5c-0.1,0.2-0.2,0.4-0.3,0.5 c-0.1,0.2-0.2,0.3-0.2,0.5c-0.1,0.2-0.2,0.4-0.3,0.6c-0.1,0.1-0.1,0.3-0.2,0.4c-0.1,0.2-0.2,0.5-0.3,0.7c-0.1,0.2-0.2,0.4-0.3,0.6 c-0.1,0.3-0.2,0.6-0.4,0.9c-0.1,0.2-0.1,0.3,0.1,0.5c0.2,0.2,0.3,0.4,0.4,0.6c0.1,0.1,0.2,0.2,0.3,0.3c0.3,0.3,0.5,0.6,0.8,0.9 c0.1,0.1,0.2,0.2,0.3,0.4c0.2,0.3,0.4,0.6,0.6,0.8c0.1,0.1,0.2,0.3,0.3,0.4c0,0.2,0.2,0.3,0.3,0.4c0,0.1,0.1,0.2,0.2,0.2 c0.1,0.2,0.3,0.4,0.4,0.6c0.1,0.2,0.3,0.4,0.4,0.6c0.1,0.1,0.2,0.3,0.3,0.4c0.1,0.1,0.1,0.2,0.2,0.3C76.1,82.1,76,82.2,75.9,82.3z M69.2,75.8c0-0.1,0.1-0.2,0.1-0.2c0,0-0.1,0-0.1,0c0,0-0.1,0.1-0.1,0.1C69.1,75.7,69.1,75.7,69.2,75.8z M69.2,74.1 c0,0,0.1,0,0.1,0.1c0-0.1,0-0.1,0.1-0.2c0,0,0,0,0,0C69.3,74,69.3,74,69.2,74.1z M69.5,75.8c0.1,0,0.1-0.1,0.1-0.1 c-0.1,0-0.1-0.1-0.2-0.2c0,0.1-0.1,0.1-0.1,0.2c0.1,0.2,0,0.2-0.1,0.3c0,0,0.1,0,0.1,0c0,0,0,0,0,0C69.5,76,69.4,75.8,69.5,75.8 c0,0.1,0,0.1,0.1,0.2c0-0.1,0-0.1,0-0.2C69.6,75.8,69.6,75.8,69.5,75.8z M69.3,75L69.3,75c0,0,0,0.1,0,0.2c0,0,0.1,0,0.1,0 C69.3,75,69.3,75,69.3,75z M69.6,76.2c0,0-0.1,0-0.1,0c0-0.1-0.1-0.1-0.1-0.2c0,0,0,0.1,0,0.1C69.3,76.2,69.4,76.2,69.6,76.2 C69.5,76.3,69.5,76.2,69.6,76.2z M69.4,74.5c0,0,0,0.1-0.1,0.1c0,0,0.1,0,0.1,0.1c0,0,0.1-0.1,0.1-0.1 C69.5,74.6,69.4,74.5,69.4,74.5z M69.7,75.4c0,0,0-0.1,0-0.2c-0.1,0.1-0.1,0.1-0.2,0.2C69.6,75.4,69.6,75.4,69.7,75.4z M70.2,71.6 c0-0.2-0.1-0.2-0.3-0.1C70,71.6,70.1,71.6,70.2,71.6z M70.3,71.7c-0.1,0-0.1,0-0.1-0.1c0,0-0.1,0.1-0.1,0.2c0,0,0,0,0,0 C70.2,71.8,70.2,71.8,70.3,71.7z M70.4,76.5c0,0.1,0,0.1,0,0.2c0,0,0.1,0,0.1,0c0,0.1-0.1,0.1-0.1,0.2c0.1,0,0.1,0,0.1,0 C70.6,76.7,70.6,76.5,70.4,76.5z M73.8,69.9c0,0,0,0.1,0,0.2c0,0,0.1-0.1,0.1-0.1C73.9,70,73.9,69.9,73.8,69.9 C73.9,69.9,73.9,69.9,73.8,69.9z M74.9,80.4c-0.1,0-0.1,0-0.3,0c0.1,0,0.1,0.1,0.2,0.1C74.9,80.5,74.9,80.4,74.9,80.4z M75,80.6 C75,80.6,74.9,80.6,75,80.6c-0.1,0-0.1-0.1-0.2-0.1c0,0,0,0.1,0,0.2C74.9,80.7,74.9,80.7,75,80.6c-0.1,0.1-0.1,0.1-0.1,0.1 c0,0,0.1,0,0.1,0C75,80.7,75,80.6,75,80.6z M75.2,80.8C75.2,80.8,75.1,80.8,75.2,80.8c-0.1,0-0.1,0-0.1,0c0,0,0,0.1,0.1,0.1 C75.2,80.9,75.2,80.9,75.2,80.8z M75.5,81.3c0,0-0.1-0.1-0.1-0.1c0,0,0,0,0,0C75.3,81.3,75.4,81.3,75.5,81.3 C75.4,81.3,75.5,81.3,75.5,81.3z M75.8,81.8c-0.1,0-0.1,0-0.2,0c0,0.1,0,0.2,0.2,0.2C75.8,81.9,75.8,81.8,75.8,81.8z"></path> <path class="st2" d="M79.7,81.1c0.1,0,0.3,0.1,0.4,0.2c0.5,0.2,0.9,0,1.3-0.2c0.3-0.1,0.5-0.2,0.8-0.3c0.1,0,0.2,0,0.3,0 c0,0.1,0,0.1,0,0.1c0,0,0,0,0,0.1c0,0.1,0,0.2-0.1,0.2c0.1,0.1,0.2,0.2,0.3,0.3c0.1,0.1,0.1,0.2,0,0.3c0,0,0,0.1,0,0.1 c0,0.2-0.1,0.4-0.4,0.5c-0.3,0.1-0.7,0.3-1,0.3c-0.2,0-0.3,0-0.5,0.1c-0.1,0-0.2,0-0.3,0c-0.2,0-0.4,0-0.6-0.1 c-0.4-0.1-0.8-0.2-1.2-0.4c-0.1,0-0.1-0.1-0.2-0.1c-0.1,0-0.1-0.1-0.2-0.1c0-0.1-0.1-0.1-0.2-0.2c0,0-0.1-0.1-0.1-0.1 c-0.2-0.2-0.4-0.5-0.5-0.8c-0.2-0.3-0.2-0.6-0.3-0.8c-0.1-0.4-0.1-0.7-0.1-1.1c0-0.4,0-0.8,0.1-1.1c0-0.1,0-0.2,0-0.3 c0-0.4,0-0.8,0-1.2c0-0.7,0-1.3,0-2c0-0.5,0-0.9,0.1-1.4c0-0.6,0.1-1.2,0.1-1.8c0-0.4,0-0.8,0.1-1.2c0.1-0.6,0.1-1.2,0.2-1.8 c0-0.2,0.1-0.4,0.1-0.6c0-0.3,0.3-0.4,0.5-0.4c0.1,0,0.3,0,0.4,0c0.2,0,0.4-0.1,0.6-0.1c0.3,0,0.6,0,0.9,0c0.1,0,0.2,0,0.2,0 c0.2,0,0.4,0,0.6,0c0.3,0,0.6,0.1,0.8,0.1c0.1,0,0.2,0,0.3,0.1c0,0,0.1,0,0.1,0.1c0.1,0.2,0.2,0.1,0.3,0.2c0.1,0,0.2,0,0.3,0.1 c0,0.1,0,0.1,0,0.2c0,0,0,0,0,0c-0.1,0.1-0.1,0.1-0.2,0.2c0,0,0,0,0,0c-0.1,0-0.1,0-0.2,0c0,0-0.1,0-0.1,0c0,0,0,0,0,0 c-0.1,0-0.2,0-0.3,0c-0.3,0-0.5,0.1-0.8,0.1c-0.1,0-0.3,0.1-0.4,0.1c0,0-0.1,0-0.1,0c-0.3,0.1-0.6,0-0.8,0c-0.3,0-0.5,0.1-0.7,0.1 c-0.1,0-0.2,0.1-0.1,0.2c0,0.3,0,0.6-0.1,0.9c0,0.1,0,0.3,0,0.4c0,0.1,0,0.3,0,0.4c0,0.1,0,0.1,0,0.2c0,0.2,0,0.3,0,0.5 c0,0.2,0,0.5,0,0.7c0,0.1,0,0.2,0,0.3c0,0.2,0,0.3,0,0.5c0,0,0,0.1,0,0.1c0,0.3,0,0.7,0,1c0,0.1,0,0.2,0,0.3c-0.1,0.2-0.2,0-0.3,0 c0,0.2,0.2,0.2,0.3,0.3c0,0,0.1,0,0.1,0c0.3,0,0.7-0.1,1.1-0.2c0.2,0,0.5,0,0.7,0c0.3,0,0.6,0,0.9,0.1c0.2,0,0.4,0.1,0.6,0.1 c0,0.1,0,0.2-0.1,0.3c-0.1,0.1-0.1,0.2-0.2,0.3c0,0-0.1,0.1-0.1,0.1c0,0,0,0.1,0,0.1v0c-0.2,0.1-0.3,0.3-0.5,0.4 c-0.2,0.1-0.4,0-0.7,0.1c-0.5,0.1-1,0.1-1.5,0c-0.1,0-0.3,0-0.4,0c0,0-0.1,0.1-0.2,0.1c0,0,0,0.1,0,0.1h0c0,0.2,0,0.3,0,0.5 c0,0,0,0,0,0.1h0c0,0.7,0,1.3,0.1,2c0.1,0.1,0.1,0.3,0,0.4c0,0,0,0,0,0.1c0,0.2,0,0.4,0,0.6c0,0,0,0,0,0c0,0,0,0.1,0,0.1 c0,0.2,0,0.5,0.1,0.7c0,0.1,0.1,0.3,0.1,0.4C79.7,81,79.7,81,79.7,81.1C79.7,81.1,79.7,81.1,79.7,81.1z M78.7,74.2 c0-0.1-0.1-0.1-0.1-0.2c0,0,0,0.1,0,0.1C78.5,74.1,78.6,74.2,78.7,74.2L78.7,74.2z M78.7,80.7c0,0,0.1,0.1,0.1,0.1l0,0 c0,0,0.1,0,0.2,0.1c0,0,0,0,0-0.1c0,0-0.1,0-0.1,0c0,0,0-0.1-0.1-0.1c0,0,0,0,0-0.1C78.8,80.7,78.8,80.7,78.7,80.7z M79.6,81 C79.6,80.9,79.6,80.9,79.6,81c0-0.1-0.1-0.1-0.1-0.2c0,0.1,0,0.1-0.1,0.2C79.4,81,79.5,81,79.6,81z"></path> <path class="st2" d="M96.3,78.9c0,0.2,0,0.4,0,0.6c0,0.2,0,0.3,0,0.5c0,0.3-0.1,0.5-0.1,0.8c0,0.1,0,0.3-0.1,0.4 c0,0.2-0.1,0.3-0.1,0.5c-0.1,0.1-0.2,0.3-0.3,0.2c0,0.2-0.2,0.3-0.3,0.4c-0.1,0.1-0.3,0.2-0.4,0.3c-0.3,0.2-0.7,0.3-1.1,0.3 c0,0,0,0-0.1,0c-0.2,0.1-0.4,0-0.6,0c-0.4,0-0.7-0.1-1.1-0.2c0,0-0.1,0-0.1,0c0,0.2-0.3,0.4-0.4,0.4c-0.3,0-0.4-0.1-0.5-0.3 c0,0,0,0,0.1,0c0-0.1,0-0.2-0.1-0.3h0c0,0,0,0,0,0c0-0.1,0-0.2,0-0.3c0-0.2-0.1-0.4-0.1-0.6c0-0.4-0.1-0.9-0.1-1.3 c0-0.6-0.1-1.2-0.1-1.7c0-0.1,0-0.2,0-0.3c0,0,0,0,0.1,0c0,0-0.1,0-0.1,0c0-0.5,0-1-0.1-1.4c0-0.4,0-0.8,0-1.1c0-0.3,0-0.5,0-0.8 c0,0,0-0.1,0-0.1c0-0.1,0-0.2,0-0.3c0-0.6,0-1.2,0-1.7c0-0.4,0-0.9,0-1.3c0-0.4,0-0.9,0-1.3c0-0.9,0.1-1.9,0.1-2.8 c0-0.3,0-0.6,0.1-0.9c0,0,0-0.1,0-0.2c0,0,0.1,0,0.1-0.1c0.1,0.1,0.3,0.3,0.3,0.5c0,0.1,0,0.2,0.1,0.2c0.1,0.2,0.1,0.4,0.2,0.6 c0,0,0.1,0,0.2-0.1c0.3-0.1,0.6-0.2,1-0.2c0.3,0,0.5,0.1,0.7,0.2c0.1,0,0.1,0.1,0.2,0.1c0.4,0.1,0.7,0.4,1,0.8 c0.1,0.2,0.3,0.3,0.3,0.6c0.1,0.2,0.2,0.4,0.3,0.6c0,0.1,0,0.3,0,0.4c0,0.3-0.1,0.6-0.1,1c0,0.2-0.1,0.5-0.2,0.7 c-0.1,0.3-0.2,0.7-0.4,1c0,0.1-0.1,0.2-0.1,0.3c0,0.1-0.1,0.2-0.1,0.3c0,0-0.1,0-0.1,0.1c-0.1,0.2-0.2,0.4-0.3,0.6 c-0.1,0.3-0.3,0.4-0.4,0.6c-0.1,0.1-0.1,0.2-0.2,0.3c0,0-0.1,0.1-0.2,0.2c0,0,0,0.1,0,0.1c0.2,0,0.4,0.1,0.5,0.1 c0.2,0.2,0.4,0.3,0.6,0.4c0.2,0.2,0.4,0.3,0.6,0.6c0,0.1,0.1,0.1,0.2,0.2c0.2,0.1,0.3,0.3,0.4,0.5c0.2,0.3,0.4,0.6,0.6,0.9 c0.1,0.2,0.2,0.3,0.2,0.6c0,0.2,0.1,0.4,0.2,0.6C96.3,78.6,96.3,78.8,96.3,78.9z M90.9,77.4C90.9,77.4,90.9,77.4,90.9,77.4 c0,0,0-0.1,0-0.1c0,0-0.1,0-0.1,0c0,0,0,0,0,0C90.8,77.4,90.9,77.4,90.9,77.4z M90.9,77.8c0,0,0-0.1,0-0.1 C90.9,77.6,90.9,77.6,90.9,77.8C90.9,77.7,90.9,77.7,90.9,77.8C90.9,77.8,90.9,77.8,90.9,77.8z M91,81.2c0,0,0.1-0.1,0.2-0.1 c0,0,0-0.1-0.1-0.2C90.9,81,90.9,81.1,91,81.2z M91,78.4c0,0.1,0,0.3,0,0.4C91.1,78.7,91.1,78.4,91,78.4C91,78.4,91,78.4,91,78.4z M91.1,78.8c0,0.1,0,0.1-0.1,0.1c0,0.2,0,0.3,0,0.4c0,0,0,0,0,0C91.1,79.2,91.1,79,91.1,78.8z M91.1,82C91.1,82,91,82,91.1,82 c-0.1,0-0.1,0.1-0.1,0.2c0,0,0,0,0,0C91,82.1,91.1,82.1,91.1,82z M91.2,79.5c0,0-0.1,0-0.1,0c0,0.1,0,0.3,0,0.4c0,0.1,0,0.2,0,0.3 c0,0,0,0,0,0c0,0,0.1,0,0.1,0c0-0.1,0-0.1,0-0.2c0,0,0,0,0,0C91.2,79.8,91.2,79.6,91.2,79.5z M91,77.2c0,0.1,0,0.2,0,0.2h0 C91.1,77.4,91.1,77.3,91,77.2C91.1,77.3,91.1,77.2,91,77.2z M91,77.8L91,77.8c0,0,0-0.1,0-0.1c0,0,0,0,0,0C91,77.7,91,77.7,91,77.8 z M91.2,81.8c0-0.2,0-0.3,0.1-0.5c0,0,0,0,0,0c0,0-0.1,0.1-0.1,0.1c0,0,0,0,0,0c0,0.2,0,0.3-0.1,0.5c0,0,0.1,0,0.2,0 C91.2,81.9,91.2,81.8,91.2,81.8z M91.3,80.8c0,0-0.1,0-0.1,0c0-0.1,0.1-0.1,0.1-0.2c0-0.1-0.1-0.2-0.1-0.3c0,0,0,0,0,0 c-0.1,0.2,0,0.5,0,0.7C91.2,81,91.2,80.8,91.3,80.8z M91.5,81.5C91.5,81.5,91.5,81.5,91.5,81.5c-0.1,0-0.1,0-0.2,0c0,0,0,0.1,0,0.1 C91.4,81.6,91.5,81.5,91.5,81.5z M91.6,82.4c-0.1,0-0.1,0-0.1,0C91.5,82.4,91.6,82.5,91.6,82.4C91.6,82.4,91.6,82.4,91.6,82.4z M92,82.4c-0.1,0-0.2,0-0.2,0c0-0.1,0-0.2,0-0.3c0,0-0.1,0-0.2-0.1c0.1,0.1,0.1,0.2,0.1,0.3c0,0,0,0-0.1,0c0,0.1,0,0.1,0.1,0.2 c0,0,0.1,0,0.2,0.1c0,0,0,0,0,0.1C91.9,82.5,91.9,82.5,92,82.4z M91.7,71.1c0,0,0,0.1,0,0.2c0,0.2,0,0.5,0,0.7c0,0.4,0,0.8,0.1,1.2 c0,0.1,0,0.3,0.1,0.4c0.5-0.6,0.8-1.4,1.2-2c0,0,0-0.1,0-0.1c0.1-0.3,0.3-0.6,0.4-0.9c0.2-0.4,0.3-0.9,0.2-1.4 c-0.1-0.4-0.2-0.8-0.6-1L92.2,68h-0.1c-0.1,0-0.2,0-0.2,0c0,0.3,0,0.6,0,0.8c0,0,0,0.1,0,0.1c0,0.3,0,0.7-0.1,1 C91.7,70.3,91.6,70.7,91.7,71.1z M94.6,79.7c0-0.3,0-0.7-0.1-1c-0.1-0.4-0.1-0.8-0.4-1.2c-0.2-0.3-0.3-0.6-0.5-0.9 c0,0-0.1-0.1-0.1-0.1c0-0.2-0.2-0.3-0.3-0.4c-0.3-0.3-0.6-0.4-0.9-0.5c-0.1,0-0.3-0.1-0.4-0.2c-0.1,0.2-0.1,0.3-0.2,0.5 c0.1,0,0.1,0,0.1-0.1c0,0.2,0,0.4,0,0.6c0,0.3,0,0.6,0,0.9c0,0.3,0,0.7,0,1c0,0.4,0,0.8,0.1,1.2c0,0,0,0,0,0.1c0,0.1,0,0.2,0,0.3 c0,0.2,0,0.3,0.1,0.5c0,0.3,0,0.6,0,0.9c0,0.3,0,0.6,0.1,0.9c0,0,0,0.1,0,0.1c0.1,0,0.3-0.1,0.4-0.1c0.4-0.1,0.9-0.3,1.3-0.4 c0,0,0.1-0.1,0.1-0.2c0.1-0.1,0.1-0.3,0.2-0.4C94.5,80.7,94.6,80.2,94.6,79.7z M92,82.2C92,82.1,92,82.1,92,82.2 c-0.1,0-0.1,0-0.2,0c0.1,0,0.1,0.1,0.1,0.1C92,82.3,92,82.2,92,82.2z M92,73.9c0,0.1,0,0.1-0.1,0.1c0,0,0,0,0.1,0.1 C92,74,92,74,92,73.9z M92.3,74.1c0,0.1-0.1,0.1-0.1,0.2c0,0,0,0,0,0c0,0,0-0.1-0.1-0.1c0,0,0,0,0,0c0,0,0,0.1,0,0.2 c0,0,0.1,0,0.1,0c0,0,0.1,0.1,0.1,0.1c0,0,0,0,0,0C92.3,74.3,92.3,74.2,92.3,74.1L92.3,74.1z M92.6,74.4 C92.6,74.4,92.6,74.5,92.6,74.4c0,0.1,0,0.1,0,0.2c0,0,0,0,0.1,0C92.6,74.6,92.6,74.5,92.6,74.4z M94.8,78.9 C94.8,78.9,94.8,78.9,94.8,78.9c0-0.1,0-0.1,0-0.2c0,0,0,0,0,0C94.7,78.8,94.7,78.8,94.8,78.9z M95,80.3c0,0,0-0.1,0-0.2 c-0.1,0.1-0.1,0.1-0.2,0.2C94.8,80.3,94.9,80.3,95,80.3C94.9,80.3,94.9,80.3,95,80.3z"></path> <path class="st2" d="M98.4,73C98.4,73,98.4,73,98.4,73c0-0.1-0.1-0.1-0.2-0.1c0,0,0.1,0,0.1,0c0,0,0,0,0.1-0.1c0,0-0.1,0-0.1-0.1 c0,0.1,0,0.1,0,0.1c0,0-0.1,0-0.1,0c0.3-1.8,0.6-3.5,1.1-5.3c0.1,0,0.2-0.1,0.2-0.2c0-0.1,0.1-0.2,0.2-0.2c0.1,0,0.2,0.1,0.2,0.2 c0.1,0.1,0.1,0.2,0.2,0.3c0.1,0.1,0.2,0.2,0.3,0.3c0,0,0,0,0,0c0.1,0.2,0.2,0.5,0.3,0.7c0.1,0.2,0.1,0.4,0.2,0.6 c0.1,0.3,0.2,0.6,0.3,0.9c0,0.1,0,0.1,0.1,0.2c0.1,0.3,0.1,0.6,0.2,0.9c0.1,0.3,0.1,0.5,0.2,0.7c0.1,0.3,0.1,0.6,0.2,0.9 c0,0.2,0.1,0.4,0.1,0.6c0,0.2,0.1,0.3,0.1,0.5s0.1,0.4,0.1,0.6c0,0.2,0.1,0.4,0.1,0.6c0,0.3,0.1,0.5,0.1,0.8c0,0.3,0,0.5,0.1,0.8 s0.1,0.5,0.2,0.8c0,0.3,0.1,0.5,0.2,0.8c0,0.1,0.1,0.2,0.1,0.3c0,0.2,0,0.4,0.1,0.6c0,0,0,0.1,0.1,0.2c0,0.2,0.1,0.4,0.1,0.6 c0,0.2,0,0.4,0.1,0.6c0,0.1,0,0.3,0.1,0.4c0,0.3,0,0.6,0.1,1c0.1,0.3,0,0.7,0,1c0,0,0,0.1-0.1,0.1c0,0.1,0,0.2,0,0.3 c0,0.1-0.1,0.1-0.2,0.1c-0.3,0-0.5-0.2-0.6-0.5c-0.1-0.2-0.2-0.4-0.3-0.6c-0.1-0.3-0.2-0.6-0.3-1c-0.1-0.3-0.2-0.6-0.2-1 c-0.1-0.6-0.2-1.2-0.3-1.8c0-0.2,0-0.3-0.1-0.5c0,0-0.1-0.1-0.1-0.2c0,0,0,0,0,0c0,0,0,0,0-0.1c0,0-0.1,0-0.1,0c0,0,0,0.1,0,0.1 c-0.1,0-0.2,0.1-0.3,0.1c0,0-0.1,0-0.1-0.1c0,0,0,0.1,0,0.1c-0.3,0-0.6,0-0.9,0.1c-0.2,0.2-0.3,0.1-0.5,0.1 c-0.2,0.1-0.2,0.2-0.3,0.4c-0.1,0.3,0,0.6-0.1,0.9c0,0.2-0.1,0.5-0.2,0.7c0,0,0,0,0,0.1c0,0.1,0,0.1,0,0.2c0,0.3-0.1,0.6-0.1,0.9 c0,0.1,0,0.3,0,0.4c0,0.2,0,0.4,0,0.6c0,0.2,0,0.5-0.1,0.7c0,0,0,0.1,0,0.2c0,0,0,0,0,0c0,0.2-0.2,0.3-0.4,0.3c0,0-0.1,0-0.2-0.1 c-0.1-0.1-0.1-0.1-0.3-0.1c-0.2-0.1-0.3-0.1-0.4-0.3c-0.1-0.1-0.1-0.2-0.1-0.3c0-0.1,0-0.3,0-0.4c0-0.2,0-0.3,0-0.5 c0-0.4,0.1-0.9,0.1-1.3c0-0.2,0.1-0.4,0.1-0.6c0-0.3,0.1-0.6,0.1-0.9c0-0.1,0-0.3,0.1-0.4c0.1-0.3,0.1-0.6,0.2-0.9 c0-0.3,0.1-0.7,0.1-1c0-0.3,0-0.6,0-0.8c0-0.2,0.1-0.3,0.1-0.5c0,0,0,0,0,0c0-0.2,0-0.4,0.1-0.7c0-0.1,0-0.3,0-0.4 c0-0.2,0.1-0.4,0.1-0.6c0-0.1,0.1-0.2,0.1-0.3C98.2,73,98.3,73,98.4,73z M98.3,73.3c0,0,0.1-0.1,0.1-0.2c-0.1,0-0.1,0-0.2,0 C98.2,73.2,98.2,73.2,98.3,73.3z M99.9,70.1C99.9,70.2,99.9,70.2,99.9,70.1c-0.1,0.2-0.1,0.4-0.1,0.5c0,0.2,0,0.4,0,0.6 c0,0.1,0,0.2,0,0.3c0,0.2-0.1,0.4-0.1,0.6c0,0.2,0,0.5,0,0.7c0,0.3-0.1,0.6-0.1,1v0c0,0.2-0.1,0.4-0.1,0.5c0,0.2,0,0.3,0,0.4 c0,0.1,0,0.2,0,0.3c0,0.2,0,0.4,0,0.5c0,0.3,0,0.4-0.1,0.6c0,0.1-0.1,0.3-0.1,0.4c0,0,0,0.1,0.1,0.1c0.3-0.1,0.5-0.1,0.8-0.2 c0.1,0,0.2,0,0.3,0c0.2,0,0.4-0.1,0.6-0.1v0c0,0,0,0,0.1,0.1c0-0.1,0-0.2,0-0.3c0-0.2-0.1-0.5-0.1-0.7c0-0.3-0.1-0.6-0.1-1 c0-0.2,0-0.4-0.1-0.6c-0.1-0.5-0.2-1-0.2-1.4c0-0.3-0.1-0.6-0.1-0.9c-0.1-0.3-0.1-0.7-0.2-1C100,70.4,100,70.3,99.9,70.1 C100,70.2,100,70.2,99.9,70.1z M100.6,77.8c0.1,0,0.1,0,0.2,0c0-0.1,0-0.1,0-0.2C100.7,77.7,100.7,77.7,100.6,77.8z M100.8,77.1 c0,0-0.1,0-0.2,0c0,0,0,0,0,0.1C100.7,77.2,100.8,77.2,100.8,77.1c0.1,0,0.1,0,0.1,0C100.9,77.1,100.9,77.1,100.8,77.1z"></path> <path class="st2" d="M111.3,82.9c0,0.1,0,0.2,0,0.3c0,0-0.1,0-0.1,0c-0.2,0-0.4-0.1-0.6-0.1c-0.5-0.2-0.9-0.5-1.2-0.9 c-0.3-0.4-0.6-0.8-0.9-1.2c-0.4-0.5-0.7-1-1-1.6c-0.2-0.4-0.6-0.9-0.8-1.3c-0.2-0.3-0.3-0.6-0.5-0.9c0,0-0.1-0.1-0.1-0.1 c0,0.1-0.1,0.2-0.1,0.2c0,0.4,0,0.9-0.1,1.4c0,0.2,0,0.5,0,0.7c0,0.4,0,0.9,0,1.3c0,0.5,0,1-0.1,1.5c0,0,0,0.1,0,0.2 c0,0.2-0.1,0.3-0.1,0.4c0,0-0.1-0.1-0.1-0.2c-0.3,0-0.1,0.3-0.3,0.4c-0.1,0-0.3,0-0.4,0c-0.1,0-0.2-0.1-0.3-0.2 c-0.2-0.3-0.2-0.6-0.2-0.9c0-0.3,0-0.7,0-1.1c0-0.6,0-1.1,0-1.7c0-0.3,0-0.5,0-0.8c0-0.3,0-0.6,0-0.9c0-0.4,0-0.8,0-1.1 c0-0.3,0-0.6,0-1c0-0.3,0-0.7,0.1-1c0-0.2,0-0.4,0-0.7c0-0.8,0-1.6,0-2.4c0-0.5,0-0.9,0-1.4c0-0.3,0.1-0.7,0.1-1c0-0.3,0-0.7,0.1-1 c0-0.1,0-0.2,0-0.3c0.4,0.1,0.8,0.2,1.1,0.5c0,0,0.1,0,0.2,0c0.4-0.2,0.9-0.3,1.4-0.2c0.3,0,0.5,0.1,0.8,0.2 c0.3,0.1,0.7,0.3,0.9,0.6c0.1,0.1,0.1,0.3,0.2,0.4c0,0.1,0.1,0.1,0.1,0.2c0.2,0.1,0.3,0.3,0.3,0.5c0,0.1,0,0.3,0,0.4 c0,0.3,0,0.7-0.1,1.1c0,0.1,0,0.2,0,0.3c-0.1,0.2-0.2,0.4-0.2,0.6c0,0.2-0.1,0.4-0.2,0.6c0,0.1-0.1,0.3-0.2,0.4 c0,0.1-0.1,0.2-0.1,0.3c-0.1,0.2-0.2,0.3-0.3,0.5c-0.1,0.2-0.2,0.3-0.3,0.5c0,0,0,0.1-0.1,0.1c0,0-0.1,0.1-0.1,0.1 c0,0,0,0.1-0.1,0.1c-0.2,0.1-0.4,0.3-0.6,0.4c-0.2,0.1-0.3,0.3-0.4,0.4c-0.1,0.1-0.2,0.1-0.3,0.2c0,0,0.1,0,0.1,0.1 c0.2,0.2,0.4,0.3,0.5,0.5c0.2,0.2,0.3,0.5,0.5,0.7c0.2,0.3,0.5,0.7,0.7,1c0.1,0.1,0.1,0.2,0.1,0.3c0.1,0.2,0.3,0.3,0.4,0.5 c0.1,0.1,0.2,0.2,0.2,0.3c0,0.1,0.1,0.2,0.1,0.3c0.2,0.3,0.4,0.7,0.6,1c0.2,0.3,0.4,0.6,0.6,0.8c0.1,0.2,0.2,0.4,0.3,0.6 c0.1,0.2,0.2,0.3,0.3,0.5C111.3,82.6,111.3,82.7,111.3,82.9z M107,73.2c0.3-0.4,0.6-0.9,0.9-1.3c0.2-0.3,0.3-0.6,0.4-1 c0-0.2,0-0.5,0.1-0.7c0-0.2,0-0.4,0-0.6c0-0.2-0.1-0.3-0.2-0.4c-0.3-0.3-0.6-0.4-1-0.3c-0.1,0-0.3,0.1-0.4,0.1 c-0.2,0-0.3,0.1-0.5,0.2c-0.2,0-0.2,0.2-0.2,0.4c0,0.3-0.1,0.5-0.1,0.8c0,0.3,0,0.7,0,1c0,0.3,0,0.6,0,0.9c0,0.4-0.1,0.9,0,1.3 c0,0.3,0,0.6,0,0.9c0,0,0,0.1,0.1,0.1c0-0.1,0.1-0.1,0.1-0.1C106.3,74.1,106.6,73.6,107,73.2z"></path> </g> <g id="Groupe_1" transform="translate(336.385 224.494)"> <path id="Trac_1" class="st3" d="M-288.9-198.9v-1.2c0-2.2-1.8-4-4-4c-2.2,0-4,1.8-4,4v1.2"></path> <path id="Trac_2" class="st3" d="M-300.6-200.1c0-4.3,3.5-7.8,7.8-7.8c4.3,0,7.8,3.5,7.8,7.8"></path> <path id="Trac_3" class="st3" d="M-308.3-208.4c0-4.3,3.5-7.8,7.8-7.8c4.3,0,7.8,3.5,7.8,7.8l0,0"></path> <path id="Trac_4" class="st3" d="M-316.1-200.1c0-4.3,3.5-7.8,7.8-7.8c4.3,0,7.8,3.5,7.8,7.8"></path> <path id="Trac_5" class="st3" d="M-312.4-198.9l0-1.2c0-2.2,1.7-4,3.9-4c2.2,0,4,1.7,4,3.9c0,0,0,0.1,0,0.1v1.2"></path> <path id="Trac_6" class="st3" d="M-304.5-206.9v-1.4c0-2.2,1.8-4,4-4c2.2,0,4,1.8,4,4l0,0v1.4"></path> <ellipse id="Ellipse_1" transform="matrix(0.7278 -0.6858 0.6858 0.7278 72.9011 -231.3426)" class="st4" cx="-255" cy="-207.5" rx="6.7" ry="15.3"></ellipse> <path id="Trac_7" class="st4" d="M-253.2-210c-6.1-5.9-14.2-8.4-16.8-5.8s3.8,5.3,9.9,11.2s10.6,12.7,13.2,10 S-247.2-204.2-253.2-210z"></path> <circle id="Ellipse_2" class="st5" cx="-281.5" cy="-214.8" r="1.2"></circle> <circle id="Ellipse_3" class="st5" cx="-283.9" cy="-212" r="1.2"></circle> <circle id="Ellipse_4" class="st5" cx="-291.1" cy="-212.6" r="1.2"></circle> <circle id="Ellipse_5" class="st5" cx="-284" cy="-207.5" r="1.2"></circle> <circle id="Ellipse_6" class="st5" cx="-288.6" cy="-209.1" r="1.2"></circle> <circle id="Ellipse_7" class="st5" cx="-287.4" cy="-215.4" r="1.9"></circle> <circle id="Ellipse_8" class="st5" cx="-281.3" cy="-210.5" r="1.4"></circle> <path id="Rectangle_1" class="st5" d="M-278.8-206.8l2.8,1.6c1.3,0.8,1.8,2.4,1,3.7l-1.6,2.8c-0.8,1.3-2.4,1.8-3.7,1l-2.8-1.6 c-1.3-0.8-1.8-2.4-1-3.7l1.6-2.8C-281.8-207.1-280.1-207.6-278.8-206.8z"></path> <path id="Rectangle_2" class="st5" d="M-271.9-205.5l2.9-0.3c1.3-0.1,2.5,0.8,2.7,2.2l0.3,2.9c0.1,1.3-0.8,2.5-2.2,2.7l-2.9,0.3 c-1.3,0.1-2.5-0.8-2.7-2.2l-0.3-2.9C-274.2-204.2-273.2-205.4-271.9-205.5z"></path> <path id="Rectangle_3" class="st4" d="M-277.3-211.6l1.9,0.1c0.9,0.1,1.5,0.8,1.5,1.7l-0.1,1.9c-0.1,0.9-0.8,1.5-1.7,1.5l-1.9-0.1 c-0.9-0.1-1.5-0.8-1.5-1.7l0.1-1.9C-278.9-211-278.2-211.7-277.3-211.6z"></path> <path id="Trac_8" class="st4" d="M-256.9-207.4c-5.9-6-14-8.7-16.7-6.1s4.8,4.9,10.8,10.8s9.3,13.4,11.9,10.8 S-251-201.4-256.9-207.4z"></path> <path id="Trac_9" class="st2" d="M-243.6-200.1c0.4,0,0.7,0.3,0.7,0.7c0,0,0,0,0,0c-0.4,18.1-17.1,32.7-37.5,32.7 s-37-14.6-37.5-32.7c0-0.4,0.3-0.7,0.7-0.7c0,0,0,0,0,0L-243.6-200.1z"></path> <path id="Trac_10" class="st6" d="M-286.9-170.5c-13.3-2-25.9-13.7-27.1-26.8h9C-302.4-187.4-300.9-177.3-286.9-170.5z"></path> </g> </svg> 